<?xml version="1.0" standalone="no"?>
<!DOCTYPE svg PUBLIC "-//W3C//DTD SVG 1.1//EN" "http://www.w3.org/Graphics/SVG/1.1/DTD/svg11.dtd" >
<svg xmlns="http://www.w3.org/2000/svg" xmlns:xlink="http://www.w3.org/1999/xlink" version="1.1">
<metadata>
Created by FontForge 20170731 at Sun Feb 20 08:07:45 2022
 By Aleksey,,,
Copyright (c) 2017 by Alexander Slobzheninov. All rights reserved.

</metadata>
<defs>
<font id="Objective-Regular" horiz-adv-x="1239" >
  <font-face 
    font-family="Objective"
    font-weight="400"
    font-stretch="normal"
    units-per-em="2048"
    panose-1="0 0 0 0 0 0 0 0 0 0"
    ascent="1638"
    descent="-410"
    x-height="1034"
    cap-height="1444"
    bbox="-109 -606 2931 2064"
    underline-thickness="102"
    underline-position="-358"
    unicode-range="U+000D-F6C3"
  />
<missing-glyph horiz-adv-x="1024" 
 />
    <glyph glyph-name=".notdef" horiz-adv-x="1024" 
 />
    <glyph glyph-name=".null" horiz-adv-x="0" 
 />
    <glyph glyph-name="nonmarkingreturn" horiz-adv-x="682" 
 />
    <glyph glyph-name="NULL" horiz-adv-x="1497" 
d="M1303 0h-1108v1444h1108v-1444zM1159 127v1188h-823v-1188h823z" />
    <glyph glyph-name="NULL" horiz-adv-x="1497" 
d="M1303 0h-1108v1444h1108v-1444zM1159 127v1188h-823v-1188h823z" />
    <glyph glyph-name="CR" unicode="&#xd;" horiz-adv-x="61" 
 />
    <glyph glyph-name="space" unicode=" " horiz-adv-x="630" 
 />
    <glyph glyph-name="exclam" unicode="!" horiz-adv-x="501" 
d="M143 82q0 44 30.5 74t76.5 30q47 0 76.5 -29.5t29.5 -74.5q0 -47 -29.5 -77t-76.5 -30q-46 0 -76.5 30t-30.5 77zM166 1065v379h172v-379l-37 -633h-100z" />
    <glyph glyph-name="quotedbl" unicode="&#x22;" horiz-adv-x="665" 
d="M104 1444h140v-285l-15 -368h-110l-15 368v285zM422 1444h139v-285l-12 -368h-111l-16 368v285z" />
    <glyph glyph-name="numbersign" unicode="#" horiz-adv-x="1945" 
d="M1233 618h506v-118h-537l-131 -500h-139l133 500h-360l-134 -500h-139l135 500h-463v118h494l84 316h-475v119h506l121 454h139l-121 -454h358l121 454h139l-120 -454h491v-119h-524zM1180 934h-361l-84 -316h361z" />
    <glyph glyph-name="dollar" unicode="$" horiz-adv-x="1439" 
d="M797 -49v-199h-160v203q-223 31 -361.5 171.5t-138.5 340.5h170q0 -160 124.5 -263.5t318.5 -103.5q174 0 278.5 79.5t104.5 197.5q0 63 -33.5 109t-89.5 73.5t-129 47.5t-153.5 36t-161.5 34t-154 47t-129 69t-89.5 105.5t-33.5 152.5q0 181 130.5 302t346.5 138v188
h160v-190q212 -26 344.5 -159t132.5 -324h-166q1 148 -112.5 242.5t-290.5 94.5q-168 0 -271.5 -76t-103.5 -190q0 -61 33.5 -106t89.5 -71.5t129 -46.5t153.5 -36t161.5 -34.5t154 -48t129 -70.5t89.5 -108t33.5 -155q0 -187 -137.5 -312t-368.5 -138z" />
    <glyph glyph-name="percent" unicode="%" horiz-adv-x="2082" 
d="M1565 805q183 0 298 -114.5t115 -297.5q0 -185 -114 -299t-299 -114q-182 0 -297 114.5t-115 298.5q0 183 115 297.5t297 114.5zM1565 645q-111 0 -181.5 -70t-70.5 -182t70.5 -182t181.5 -70q113 0 183.5 70t70.5 182t-70.5 182t-183.5 70zM518 1526q183 0 298.5 -115.5
t115.5 -298.5t-115.5 -297.5t-298.5 -114.5t-298.5 114.5t-115.5 297.5t115.5 298.5t298.5 115.5zM518 1364q-113 0 -183.5 -70t-70.5 -182t70.5 -182t183.5 -70q112 0 182 70t70 182t-70 182t-182 70zM612 0h-192l1053 1505h190z" />
    <glyph glyph-name="ampersand" unicode="&#x26;" horiz-adv-x="1619" 
d="M1513 0h-229l-182 164q-221 -215 -488 -215q-207 0 -342 115.5t-135 295.5q0 81 23.5 147.5t68 115.5t95.5 84t120 67q-149 164 -149 336q0 158 114 262.5t285 106.5q163 0 279.5 -100.5t138.5 -258.5l-160 -30q-12 104 -82 170.5t-172 66.5q-103 0 -170 -62.5
t-67 -162.5q0 -147 164 -295q19 -17 129 -117.5t212.5 -194t133.5 -120.5q98 130 162 321h161q-78 -237 -217 -417q5 -5 144.5 -131.5t162.5 -147.5zM635 100q198 0 358 160q-345 323 -440 408q-121 -46 -184.5 -117t-63.5 -186t93.5 -190t236.5 -75z" />
    <glyph glyph-name="quotesingle" unicode="'" horiz-adv-x="346" 
d="M104 1444h140v-285l-15 -368h-110l-15 368v285z" />
    <glyph glyph-name="parenleft" unicode="(" horiz-adv-x="681" 
d="M125 571q0 277 89.5 534t236.5 404h163q-160 -157 -254 -409t-94 -529q0 -283 94 -535t254 -405h-163q-147 147 -236.5 404.5t-89.5 535.5z" />
    <glyph glyph-name="parenright" unicode=")" horiz-adv-x="681" 
d="M557 571q0 -278 -89.5 -535.5t-236.5 -404.5h-163q160 153 254 405t94 535q0 277 -94 529t-254 409h163q147 -147 236.5 -404t89.5 -534z" />
    <glyph glyph-name="asterisk" unicode="*" horiz-adv-x="1048" 
d="M944 1167l-311 -174l311 -174l-59 -102l-305 180l4 -354h-119l4 354l-305 -180l-60 102l310 174l-310 174l60 103l305 -183l-4 357h119l-4 -357l305 183z" />
    <glyph glyph-name="plus" unicode="+" horiz-adv-x="1171" 
d="M1067 717v-144h-401v-389h-160v389h-402v144h402v368h160v-368h401z" />
    <glyph glyph-name="comma" unicode="," horiz-adv-x="432" 
d="M106 80q0 45 30 73.5t75 28.5q54 0 85.5 -39t31.5 -104q0 -95 -41.5 -182.5t-106.5 -130.5l-76 55q46 33 75.5 86.5t29.5 107.5q-45 0 -74 29t-29 76z" />
    <glyph glyph-name="hyphen" unicode="-" horiz-adv-x="1048" 
d="M944 567h-840v144h840v-144z" />
    <glyph glyph-name="period" unicode="." horiz-adv-x="421" 
d="M104 82q0 45 30 74.5t77 29.5q46 0 76 -30t30 -74q0 -47 -30 -77t-76 -30q-47 0 -77 30t-30 77z" />
    <glyph glyph-name="slash" unicode="/" horiz-adv-x="907" 
d="M223 -471h-155l616 1915h156z" />
    <glyph glyph-name="zero" unicode="0" horiz-adv-x="1517" 
d="M145 721q0 223 76.5 399t216.5 275.5t320 99.5q181 0 321 -99.5t216.5 -275.5t76.5 -399q0 -221 -76.5 -397t-217 -275.5t-320.5 -99.5t-320 99.5t-216.5 275.5t-76.5 397zM315 721q0 -178 55 -319t156 -221.5t232 -80.5t232.5 80.5t156.5 221.5t55 319q0 179 -55 320.5
t-156.5 221.5t-232.5 80t-232 -80t-156 -221.5t-55 -320.5z" />
    <glyph glyph-name="one" unicode="1" horiz-adv-x="815" 
d="M600 1444v-1444h-172v1217l-348 -269v203l383 293h137z" />
    <glyph glyph-name="two" unicode="2" horiz-adv-x="1296" 
d="M655 1495q214 0 355 -128.5t141 -322.5q0 -142 -78.5 -259.5t-226.5 -235.5l-508 -397h790v-152h-978v195l604 479q111 87 169 172t58 186q0 134 -91.5 222.5t-232.5 88.5q-135 0 -235.5 -97.5t-120.5 -250.5l-164 33q31 203 178 335t340 132z" />
    <glyph glyph-name="three" unicode="3" horiz-adv-x="1300" 
d="M487 715l-51 125l416 452h-670v152h916v-115l-410 -448q200 -11 334.5 -141t134.5 -322q0 -204 -147 -336.5t-373 -132.5q-212 0 -364 140.5t-169 354.5l152 27q19 -161 124.5 -266t250.5 -105q155 0 256.5 91t101.5 229q0 140 -101.5 230.5t-258.5 90.5q-88 0 -142 -26z
" />
    <glyph glyph-name="four" unicode="4" horiz-adv-x="1263" 
d="M786 0l2 328h-714v110l641 1006h243v-965h181v-151h-181v-328h-172zM786 1272l-503 -793h505z" />
    <glyph glyph-name="five" unicode="5" horiz-adv-x="1306" 
d="M610 758h-366l73 686h740v-152h-600l-39 -383h209q245 0 394.5 -135t149.5 -348q0 -207 -144 -342t-365 -135q-212 0 -361 140t-166 355l152 27q12 -161 116 -266t250 -105q152 0 251.5 91t99.5 231q0 149 -107 242.5t-287 93.5z" />
    <glyph glyph-name="six" unicode="6" horiz-adv-x="1284" 
d="M254 805l479 639h207l-430 -574q74 35 170 35q217 0 358.5 -132.5t141.5 -336.5q0 -212 -151.5 -349.5t-383.5 -137.5q-233 0 -387 136.5t-154 334.5q0 186 150 385zM274 434q0 -145 106.5 -239.5t270.5 -94.5q156 2 256.5 96t100.5 240q0 140 -101 232t-256 92
q-164 1 -270.5 -91t-106.5 -235z" />
    <glyph glyph-name="seven" unicode="7" horiz-adv-x="1056" 
d="M39 1444h975v-103l-568 -1341h-184l547 1292h-770v152z" />
    <glyph glyph-name="eight" unicode="8" horiz-adv-x="1380" 
d="M690 1497q211 0 347.5 -108.5t136.5 -278.5q0 -121 -69.5 -215.5t-178.5 -122.5q135 -31 222 -141.5t87 -251.5q0 -187 -153.5 -307.5t-391.5 -120.5q-237 0 -391 120.5t-154 307.5q0 141 87 251.5t223 141.5q-109 28 -178.5 122.5t-69.5 215.5q0 169 136 278t347 109z
M690 688q-155 0 -256.5 -83t-101.5 -210q0 -129 101 -212t257 -83q157 0 258 83t101 212q0 127 -102 210t-257 83zM690 1343q-135 0 -223 -70t-88 -179q0 -110 88 -182t223 -72t223 72t88 182q0 109 -88 179t-223 70z" />
    <glyph glyph-name="nine" unicode="9" horiz-adv-x="1284" 
d="M1028 625l-479 -625h-207l422 551q-71 -31 -160 -31q-218 0 -359 135t-141 344q0 215 150.5 354.5t382.5 139.5q234 0 388.5 -138t154.5 -341q0 -192 -152 -389zM1008 999q0 149 -106 246t-269 96q-155 0 -257 -97t-102 -245q0 -146 101.5 -239.5t257.5 -93.5
q163 -2 269 92.5t106 240.5z" />
    <glyph glyph-name="colon" unicode=":" horiz-adv-x="421" 
d="M104 82q0 45 30 74.5t77 29.5q46 0 76 -30t30 -74q0 -47 -30 -77t-76 -30q-47 0 -77 30t-30 77zM104 877q0 46 30 75t77 29q46 0 76 -29t30 -75t-30 -76.5t-76 -30.5q-47 0 -77 30.5t-30 76.5z" />
    <glyph glyph-name="semicolon" unicode=";" horiz-adv-x="432" 
d="M104 877q0 46 30 75t77 29q46 0 76 -29t30 -75t-30 -76.5t-76 -30.5q-47 0 -77 30.5t-30 76.5zM106 80q0 45 30 73.5t75 28.5q54 0 85.5 -39t31.5 -104q0 -95 -41.5 -182.5t-106.5 -130.5l-76 55q46 33 75.5 86.5t29.5 107.5q-45 0 -74 29t-29 76z" />
    <glyph glyph-name="less" unicode="&#x3c;" horiz-adv-x="954" 
d="M829 1034v-151l-643 -367l643 -366v-150l-761 440v152z" />
    <glyph glyph-name="equal" unicode="=" horiz-adv-x="1171" 
d="M1067 457v-144h-963v144h963zM1067 971v-144h-963v144h963z" />
    <glyph glyph-name="greater" unicode="&#x3e;" horiz-adv-x="954" 
d="M125 150l641 366l-641 367v151l762 -442v-152l-762 -440v150z" />
    <glyph glyph-name="question" unicode="?" horiz-adv-x="1230" 
d="M498 80q0 45 29.5 74.5t76.5 29.5q46 0 76.5 -29.5t30.5 -74.5q0 -47 -30.5 -77t-76.5 -30q-47 0 -76.5 30t-29.5 77zM684 367h-158q0 84 13.5 148t43 113t65.5 84.5t91 73.5q39 27 60.5 43t51.5 43.5t46 52t27.5 58.5t11.5 72q0 123 -88 205.5t-219 82.5
q-140 0 -233 -96t-111 -248l-160 31q25 205 164 335t342 130q202 0 339.5 -125t137.5 -313q0 -57 -14.5 -106t-34 -83t-58 -69.5t-68.5 -57.5t-83 -57q-93 -62 -129.5 -128.5t-36.5 -188.5z" />
    <glyph glyph-name="at" unicode="@" horiz-adv-x="2099" 
d="M279 532q0 -161 53.5 -300t147 -237.5t226.5 -155t287 -56.5q76 0 159 20.5t132 49.5v-142q-118 -63 -291 -63q-244 0 -442.5 114t-312 316.5t-113.5 453.5q0 255 118.5 458.5t330 318t477.5 114.5q199 0 371 -67t293.5 -184.5t190.5 -283t68 -356.5q0 -241 -91 -393.5
t-243 -152.5q-110 0 -182.5 78t-73.5 208q-38 -82 -144 -134t-234 -52q-181 0 -296.5 127t-115.5 319q0 196 129.5 323.5t327.5 127.5q199 0 326.5 -122.5t127.5 -311.5l2 -262q0 -77 36.5 -125.5t92.5 -48.5q87 0 136 116t49 303q0 216 -99 389t-275 270t-396 97
q-166 0 -309.5 -57t-245 -156.5t-159.5 -240t-58 -302.5zM1051 848q-132 0 -216.5 -89.5t-84.5 -226.5q0 -135 84.5 -222t216.5 -87q129 0 214 87t85 222q0 138 -83.5 227t-215.5 89z" />
    <glyph glyph-name="A" unicode="A" horiz-adv-x="1441" 
d="M242 0h-183l539 1444h246l538 -1444h-182l-123 340h-717zM723 1292l-311 -819h620z" />
    <glyph glyph-name="B" unicode="B" horiz-adv-x="1441" 
d="M801 0h-606v1444h610q195 0 322.5 -110t127.5 -279q0 -110 -65 -197t-166 -113q120 -28 196 -123.5t76 -218.5q0 -175 -140 -289t-355 -114zM778 668h-413v-516h413q152 0 250 73.5t98 186.5q0 112 -98 184t-250 72zM784 1292h-419v-473h419q132 0 216.5 66t84.5 170
q0 103 -84.5 170t-216.5 67z" />
    <glyph glyph-name="C" unicode="C" horiz-adv-x="1681" 
d="M1391 481l165 -30q-36 -143 -135 -257.5t-242.5 -179.5t-304.5 -65t-300 58t-237.5 159.5t-155 245t-56.5 309.5t56.5 310t155 246t238 160t299.5 58q244 0 436.5 -149t245.5 -377l-167 -21q-40 170 -185.5 282.5t-329.5 112.5q-253 0 -416 -175t-163 -447
q1 -133 44.5 -248.5t119.5 -197.5t183.5 -128.5t231.5 -46.5q182 0 328 108t189 273z" />
    <glyph glyph-name="D" unicode="D" horiz-adv-x="1599" 
d="M635 0h-440v1444h440q378 0 609 -199t231 -524q0 -214 -104.5 -378t-295.5 -253.5t-440 -89.5zM1307 721q0 261 -184.5 416t-487.5 155h-270v-1140h270q303 0 487.5 155t184.5 414z" />
    <glyph glyph-name="E" unicode="E" horiz-adv-x="1320" 
d="M1098 819v-143h-738v-524h840v-152h-1005v1444h985v-152h-820v-473h738z" />
    <glyph glyph-name="F" unicode="F" horiz-adv-x="1189" 
d="M365 1292v-561h620v-141h-620v-590h-170v1444h911v-152h-741z" />
    <glyph glyph-name="G" unicode="G" horiz-adv-x="1777" 
d="M1481 643l-584 2v152h754q13 -182 -37 -339.5t-148.5 -269t-245 -175.5t-319.5 -64q-222 0 -399.5 99.5t-277 276t-99.5 396.5q0 222 99.5 398.5t276.5 276t400 99.5q229 0 415 -122t245 -310l-158 -49q-44 143 -186.5 236t-315.5 93q-174 0 -312.5 -79t-216 -221
t-77.5 -322q0 -132 45.5 -247.5t125 -197.5t192.5 -129t243 -47q160 0 292 71t208.5 195.5t79.5 276.5z" />
    <glyph glyph-name="H" unicode="H" horiz-adv-x="1523" 
d="M1161 0v676h-799v-676h-169v1444h169v-617h799v617h170v-1444h-170z" />
    <glyph glyph-name="I" unicode="I" horiz-adv-x="559" 
d="M365 0h-170v1444h170v-1444z" />
    <glyph glyph-name="J" unicode="J" horiz-adv-x="966" 
d="M600 432v1012h172v-1010q0 -213 -121.5 -344t-310.5 -131q-132 0 -260 41v147q119 -36 225 -36q133 0 214.5 86.5t80.5 234.5z" />
    <glyph glyph-name="K" unicode="K" horiz-adv-x="1265" 
d="M365 682v-682h-170v1444h170v-633l612 633h223l-684 -699l705 -745h-224z" />
    <glyph glyph-name="L" unicode="L" horiz-adv-x="1183" 
d="M365 1444v-1292h739v-152h-909v1444h170z" />
    <glyph glyph-name="M" unicode="M" horiz-adv-x="1937" 
d="M1036 0h-137l-534 1225v-1225h-170v1444h249l525 -1206l524 1206h250v-1444h-170v1227z" />
    <glyph glyph-name="N" unicode="N" horiz-adv-x="1529" 
d="M365 0h-170v1444h231l739 -1235v1235h172v-1444h-231l-741 1235v-1235z" />
    <glyph glyph-name="O" unicode="O" horiz-adv-x="1802" 
d="M125 721q0 224 98.5 400.5t275.5 275t402 98.5t402.5 -98.5t276.5 -275t99 -400.5t-99 -400t-276.5 -274t-402.5 -98t-402 98t-275.5 274t-98.5 400zM295 721q0 -270 171 -444.5t435 -176.5q265 0 435.5 175.5t170.5 445.5q0 272 -170.5 447t-435.5 175
q-264 0 -435 -175.5t-171 -446.5z" />
    <glyph glyph-name="P" unicode="P" horiz-adv-x="1382" 
d="M752 528h-392v-528h-165v1444h557q229 0 377.5 -129.5t148.5 -329.5q-2 -198 -150 -327.5t-376 -129.5zM729 1292h-369v-610h369q163 0 270 85.5t107 217.5q1 133 -105.5 220t-271.5 87z" />
    <glyph glyph-name="Q" unicode="Q" horiz-adv-x="1802" 
d="M125 721q0 224 98.5 400.5t275.5 275t402 98.5t402.5 -98.5t276.5 -275t99 -400.5q0 -202 -81 -365.5t-228 -265.5l303 -385h-203l-245 307q-148 -63 -324 -63q-225 0 -402 98t-275.5 274t-98.5 400zM295 721q0 -270 171 -444.5t435 -176.5q130 0 243 46.5t192.5 128.5
t125 197.5t45.5 248.5q0 272 -170.5 447t-435.5 175q-264 0 -435 -175.5t-171 -446.5z" />
    <glyph glyph-name="R" unicode="R" horiz-adv-x="1495" 
d="M825 565h-460v-565h-170v1444h636q229 0 376 -125t147 -320q0 -147 -100 -261t-257 -148l369 -590h-199zM819 1292h-454v-575h454q160 0 262.5 79t102.5 203q0 135 -101.5 214t-263.5 79z" />
    <glyph glyph-name="S" unicode="S" horiz-adv-x="1439" 
d="M745 -51q-265 0 -436.5 146t-171.5 372h170q0 -160 124.5 -263.5t318.5 -103.5q174 0 278.5 79.5t104.5 197.5q0 63 -33.5 109t-89.5 73.5t-129 47.5t-153.5 36t-161.5 34t-154 47t-129 69t-89.5 105.5t-33.5 152.5q0 194 151.5 319t393.5 125q163 0 293 -62.5t203 -174
t73 -252.5h-166q1 148 -112.5 242.5t-290.5 94.5q-168 0 -271.5 -76t-103.5 -190q0 -61 33.5 -106t89.5 -71.5t129 -46.5t153.5 -36t161.5 -34.5t154 -48t129 -70.5t89.5 -108t33.5 -155q0 -197 -153.5 -324.5t-404.5 -127.5z" />
    <glyph glyph-name="T" unicode="T" horiz-adv-x="1222" 
d="M696 1292v-1292h-170v1292h-483v152h1137v-152h-484z" />
    <glyph glyph-name="U" unicode="U" horiz-adv-x="1533" 
d="M1182 586v858h170v-858q0 -280 -164 -458.5t-420 -178.5q-170 0 -303.5 81t-208 226.5t-74.5 329.5v858h170v-858q0 -132 50.5 -242.5t146.5 -177t219 -66.5q185 0 299.5 135.5t114.5 350.5z" />
    <glyph glyph-name="V" unicode="V" horiz-adv-x="1423" 
d="M840 0h-254l-527 1444h181l473 -1315l471 1315h180z" />
    <glyph glyph-name="W" unicode="W" horiz-adv-x="2203" 
d="M645 115l336 1329h250l328 -1329l372 1329h176l-409 -1444h-275l-321 1266l-320 -1266h-276l-412 1444h178z" />
    <glyph glyph-name="X" unicode="X" horiz-adv-x="1427" 
d="M709 657l-426 -657h-203l500 762l-482 682h207l404 -582l413 582h207l-491 -682l512 -762h-205z" />
    <glyph glyph-name="Y" unicode="Y" horiz-adv-x="1325" 
d="M750 537v-537h-172v537l-519 907h189l416 -744l409 744h193z" />
    <glyph glyph-name="Z" unicode="Z" horiz-adv-x="1329" 
d="M1233 141v-141h-1139v113l887 1187h-866v144h1097v-113l-884 -1190h905z" />
    <glyph glyph-name="bracketleft" unicode="[" horiz-adv-x="921" 
d="M195 1505h661v-121h-510v-1634h510l-2 -119h-659v1874z" />
    <glyph glyph-name="backslash" unicode="\" horiz-adv-x="907" 
d="M223 1444l617 -1915h-156l-616 1915h155z" />
    <glyph glyph-name="bracketright" unicode="]" horiz-adv-x="921" 
d="M68 1384v121h661v-1874h-661v119h510v1634h-510z" />
    <glyph glyph-name="asciicircum" unicode="^" horiz-adv-x="1173" 
d="M1073 819h-158l-329 520l-326 -520h-160l402 625h170z" />
    <glyph glyph-name="underscore" unicode="_" horiz-adv-x="1024" 
d="M1024 0v-133h-1024v133h1024z" />
    <glyph glyph-name="grave" unicode="`" horiz-adv-x="606" 
d="M283 1536l219 -283h-166l-232 283h179z" />
    <glyph glyph-name="a" unicode="a" horiz-adv-x="1370" 
d="M1053 850v184h155v-1034h-155v182q-67 -104 -175.5 -163.5t-240.5 -59.5q-152 0 -274 71.5t-190.5 199t-68.5 286.5q0 243 150.5 401t382.5 158q132 0 240.5 -59.5t175.5 -165.5zM655 100q171 0 283.5 118t112.5 298q0 181 -112.5 298.5t-283.5 117.5
q-172 0 -283.5 -117.5t-111.5 -298.5q0 -180 111.5 -298t283.5 -118z" />
    <glyph glyph-name="b" unicode="b" horiz-adv-x="1363" 
d="M313 178v-178h-151v1505h155v-645q67 101 173.5 158t236.5 57q232 0 382.5 -158t150.5 -401q0 -241 -151.5 -399t-381.5 -158q-132 0 -239.5 58t-174.5 161zM1104 516q0 177 -111.5 292.5t-283.5 115.5t-284 -115.5t-112 -292.5q0 -175 112 -290t284 -115
q171 0 283 113.5t112 291.5z" />
    <glyph glyph-name="c" unicode="c" horiz-adv-x="1249" 
d="M1143 696l-152 -20q-29 114 -127 188t-221 74q-164 0 -273.5 -120t-109.5 -302t109 -301t274 -119q124 0 220.5 72t127.5 184l154 -20q-35 -163 -177 -268t-325 -105q-235 0 -387 157t-152 400t153 401t386 158q187 0 329 -107.5t171 -271.5z" />
    <glyph glyph-name="d" unicode="d" horiz-adv-x="1363" 
d="M1047 860v645h155v-1505h-151v178q-67 -103 -174.5 -161t-237.5 -58q-232 0 -383.5 158t-151.5 399q0 243 151.5 401t383.5 158q129 0 235 -57t173 -158zM260 516q0 -178 112 -291.5t283 -113.5q172 0 284 115t112 290q0 177 -112 292.5t-284 115.5t-283.5 -115.5
t-111.5 -292.5z" />
    <glyph glyph-name="e" unicode="e" horiz-adv-x="1300" 
d="M651 100q116 0 217 59.5t140 147.5l139 -51q-50 -129 -187 -213t-298 -84q-243 0 -400.5 160.5t-157.5 408.5q0 117 41 218.5t113.5 173.5t174.5 113.5t220 41.5q236 0 389.5 -155.5t153.5 -393.5q0 -38 -2 -61l-930 2q19 -163 126 -265t261 -102zM268 602l764 -2
q-22 149 -127 240.5t-258 91.5q-150 0 -253.5 -91.5t-125.5 -238.5z" />
    <glyph glyph-name="f" unicode="f" horiz-adv-x="774" 
d="M694 1520v-136q-67 19 -116 19q-68 0 -110 -45.5t-42 -124.5v-199h264v-129h-264v-905h-158v905h-168v129h168v215q1 135 76 216t195 81q79 0 155 -26z" />
    <glyph glyph-name="g" unicode="g" horiz-adv-x="1363" 
d="M154 -154l149 37q34 -113 135 -183.5t228 -70.5q169 0 275 103.5t106 283.5v164q-68 -99 -173.5 -154t-234.5 -55q-232 0 -383.5 154.5t-151.5 390.5q0 241 151.5 398t383.5 157q131 0 236 -55t172 -154v172h155v-1018q0 -244 -147.5 -386t-382.5 -142q-187 0 -331 99.5
t-187 258.5zM655 113q172 0 284 114t112 289q0 181 -112 298.5t-284 117.5t-283.5 -117.5t-111.5 -298.5q0 -175 112.5 -289t282.5 -114z" />
    <glyph glyph-name="h" unicode="h" 
d="M670 1075q194 0 311 -128t117 -329v-618h-156v618q0 139 -78.5 226.5t-214.5 87.5t-234 -94t-98 -234v-604h-155v1505h155v-618q52 87 148.5 137.5t204.5 50.5z" />
    <glyph glyph-name="i" unicode="i" horiz-adv-x="528" 
d="M342 0h-156v1034h156v-1034zM158 1331q0 46 29.5 75.5t76.5 29.5q46 0 76.5 -29.5t30.5 -75.5t-30.5 -76t-76.5 -30q-47 0 -76.5 30t-29.5 76z" />
    <glyph glyph-name="j" unicode="j" horiz-adv-x="520" 
d="M180 -154v1188h156v-1204q0 -131 -74.5 -211t-195.5 -80q-96 0 -175 27v137q56 -20 134 -20q70 0 112.5 45t42.5 118zM152 1331q0 46 29.5 75.5t76.5 29.5q46 0 76.5 -29.5t30.5 -75.5t-30.5 -76t-76.5 -30q-47 0 -76.5 30t-29.5 76z" />
    <glyph glyph-name="k" unicode="k" horiz-adv-x="1054" 
d="M317 489v-489h-155v1505h155v-889l451 418h211l-518 -481l538 -553h-211z" />
    <glyph glyph-name="l" unicode="l" horiz-adv-x="477" 
d="M317 0h-157v1505h157v-1505z" />
    <glyph glyph-name="m" unicode="m" horiz-adv-x="1900" 
d="M317 621v-621h-155v1034h151v-129q50 81 130 125.5t178 44.5q126 0 224.5 -59t141.5 -158q50 100 144 157.5t215 57.5q181 0 297 -127.5t116 -327.5v-618h-157v621q0 136 -77.5 223.5t-197.5 87.5q-129 0 -210 -87t-81 -224v-621h-155v621q0 140 -75.5 225.5t-199.5 85.5
q-129 0 -209 -86t-80 -225z" />
    <glyph glyph-name="n" unicode="n" 
d="M672 1075q195 0 310.5 -128t115.5 -329v-618h-156v618q0 140 -76.5 227t-210.5 87q-138 0 -238 -94t-100 -234v-604h-155v1034h155v-145q54 86 150.5 136t204.5 50z" />
    <glyph glyph-name="o" unicode="o" horiz-adv-x="1308" 
d="M1206 516q0 -245 -155 -401t-398 -156t-397 156t-154 401q0 246 154 402.5t397 156.5t398 -156.5t155 -402.5zM1049 516q0 181 -112 298.5t-284 117.5t-283.5 -117.5t-111.5 -298.5q0 -180 111.5 -298t283.5 -118t284 118t112 298z" />
    <glyph glyph-name="p" unicode="p" horiz-adv-x="1363" 
d="M317 174v-645h-155v1505h151v-178q67 103 174.5 161t239.5 58q152 0 273.5 -71.5t190.5 -199.5t69 -288q0 -159 -68.5 -286.5t-190.5 -199t-274 -71.5q-131 0 -237 56.5t-173 158.5zM1104 516q0 179 -112 293.5t-283 114.5q-172 0 -284 -115.5t-112 -292.5
q0 -175 112 -290t284 -115q171 0 283 115t112 290z" />
    <glyph glyph-name="q" unicode="q" horiz-adv-x="1363" 
d="M1051 856v178h151v-1505h-155v645q-67 -102 -173 -158.5t-235 -56.5q-232 0 -383.5 158t-151.5 399q0 243 151.5 401t383.5 158q130 0 237.5 -58t174.5 -161zM260 516q0 -175 112 -290t283 -115q172 0 284 115t112 290q0 177 -112 292.5t-284 115.5q-171 0 -283 -114.5
t-112 -293.5z" />
    <glyph glyph-name="r" unicode="r" horiz-adv-x="806" 
d="M600 1071q63 0 139 -29v-143q-70 33 -153 33q-121 0 -195 -98t-74 -254v-580h-155v1034h151v-143q47 86 120 133t167 47z" />
    <glyph glyph-name="s" unicode="s" horiz-adv-x="1107" 
d="M569 -41q-199 0 -328.5 110t-127.5 277h151q0 -107 86.5 -176.5t218.5 -69.5q119 0 197 52.5t78 130.5q0 46 -31 78.5t-81 48.5t-114 31t-130.5 25.5t-130 32.5t-113.5 51.5t-80.5 84t-30.5 127.5q0 134 114.5 223.5t282.5 89.5q191 0 317 -99t126 -251l-154 2
q0 89 -82.5 147t-210.5 58q-101 0 -171 -50t-70 -124q0 -51 39 -85t102 -52t138.5 -32t151 -33.5t138.5 -48t102 -83t39 -131.5q0 -143 -120.5 -238.5t-305.5 -95.5z" />
    <glyph glyph-name="t" unicode="t" horiz-adv-x="794" 
d="M250 256v649h-170v129h176l23 242h127v-242h268v-129h-268v-643q0 -76 43 -122.5t116 -47.5q57 0 125 21v-129q-84 -25 -164 -25q-127 0 -201.5 81.5t-74.5 215.5z" />
    <glyph glyph-name="u" unicode="u" 
d="M567 -41q-195 0 -310.5 128t-115.5 329v618h156v-618q0 -140 77 -228t212 -88q137 0 236.5 94.5t99.5 233.5v606h155v-1034h-155v145q-52 -85 -149.5 -135.5t-205.5 -50.5z" />
    <glyph glyph-name="v" unicode="v" horiz-adv-x="1155" 
d="M920 1034h167l-399 -1034h-219l-401 1034h168l342 -909z" />
    <glyph glyph-name="w" unicode="w" horiz-adv-x="1800" 
d="M1147 0l-248 852l-248 -852h-213l-350 1034h164l295 -880l260 880h182l268 -880l291 880h164l-352 -1034h-213z" />
    <glyph glyph-name="x" unicode="x" horiz-adv-x="1136" 
d="M1049 0h-191l-291 438l-288 -438h-191l365 537l-344 497h184l274 -403l277 403h184l-344 -497z" />
    <glyph glyph-name="y" unicode="y" horiz-adv-x="1165" 
d="M131 -426v137q82 -28 137 -28q32 0 58.5 8.5t49 28.5t38.5 38t34 54t28 57.5t28.5 67t27.5 65.5l-464 1032h172l368 -839l324 839h166l-412 -1048q-23 -57 -35.5 -87.5t-35 -80t-39 -77t-41.5 -64.5t-49 -57t-54.5 -40t-65.5 -28.5t-75 -8.5q-79 0 -160 31z" />
    <glyph glyph-name="z" unicode="z" horiz-adv-x="1138" 
d="M1034 0h-930v102l674 789h-653v143h889v-102l-676 -791h696v-141z" />
    <glyph glyph-name="braceleft" unicode="{" horiz-adv-x="759" 
d="M573 -250h119v-119h-186q-103 0 -167.5 66t-64.5 170v495q0 60 -36 98t-93 38h-20v159h20q57 0 93 38t36 98v475q0 106 64.5 171.5t167.5 65.5h186v-121h-119q-66 0 -106.5 -41.5t-40.5 -109.5v-455q0 -83 -49 -137.5t-127 -60.5l-21 -2l21 -3q78 -5 127 -59t49 -137
v-477q0 -68 40.5 -110t106.5 -42z" />
    <glyph glyph-name="bar" unicode="|" horiz-adv-x="536" 
d="M342 1505v-1976h-147v1976h147z" />
    <glyph glyph-name="braceright" unicode="}" horiz-adv-x="759" 
d="M254 -369h-186v119h118q66 0 107 42t41 110v477q0 83 48.5 137.5t127.5 58.5l20 3l-20 2q-79 6 -127.5 60.5t-48.5 137.5v455q0 67 -41 109t-107 42h-118v121h186q103 0 167 -65.5t64 -171.5v-475q0 -60 35.5 -98t93.5 -38h21v-159h-21q-58 0 -93.5 -38t-35.5 -98v-495
q0 -104 -64 -170t-167 -66z" />
    <glyph glyph-name="asciitilde" unicode="~" horiz-adv-x="1333" 
d="M408 823q54 0 115 -24.5t114.5 -59.5t105.5 -69.5t106 -59t99 -24.5q59 1 115.5 35t95.5 90l70 -97q-51 -73 -132 -119t-157 -46q-54 0 -114 24t-113.5 58.5t-106 69.5t-107.5 59t-102 24q-60 0 -120 -34.5t-105 -92.5l-68 94q52 75 138.5 123.5t165.5 48.5z" />
    <glyph glyph-name="exclamdown" unicode="&#xa1;" horiz-adv-x="497" 
d="M334 -92v-379h-172v379l37 631h100zM356 891q0 -46 -30 -75.5t-76 -29.5q-47 0 -77 29.5t-30 75.5q0 47 30 76.5t77 29.5q46 0 76 -29.5t30 -76.5z" />
    <glyph glyph-name="cent" unicode="&#xa2;" horiz-adv-x="1249" 
d="M725 -35v-186h-158v184q-205 26 -334 179t-129 374t129 374t334 179v176h158v-176q161 -23 276.5 -125.5t141.5 -247.5l-152 -20q-29 114 -127 188t-221 74q-164 0 -273.5 -120t-109.5 -302t109 -301t274 -119q124 0 220.5 72t127.5 184l154 -20q-30 -144 -146 -244
t-274 -123z" />
    <glyph glyph-name="sterling" unicode="&#xa3;" 
d="M721 1358q-108 0 -168.5 -80t-60.5 -209v-283h514v-141h-523q-5 -162 -35 -268t-73.5 -156t-110.5 -80h866v-141h-1026v182q41 8 71 22t60 46t49 81t30.5 128.5t11.5 185.5h-201v141h205v283q0 190 104 308t285 118q180 0 288 -118.5t126 -311.5l-152 -29q-9 144 -77 233
t-183 89z" />
    <glyph glyph-name="currency" unicode="&#xa4;" horiz-adv-x="1533" 
d="M1114 942l201 188l94 -102l-195 -184q105 -136 105 -328t-105 -328l197 -184l-96 -102l-201 190q-146 -108 -346 -108q-201 0 -344 106l-201 -188l-98 100l197 186q-107 138 -107 328t107 328l-195 186l98 100l199 -188q145 107 344 107q201 0 346 -107zM1163 516
q0 177 -111.5 291.5t-283.5 114.5q-171 0 -282 -114.5t-111 -291.5t110 -290t283 -113q172 0 283.5 113t111.5 290z" />
    <glyph glyph-name="yen" unicode="&#xa5;" horiz-adv-x="1400" 
d="M616 467h-489v125h446l-493 852h192l430 -766l422 766h197l-492 -852h447v-125h-488v-176h488v-127h-488v-164h-172v164h-489v127h489v176z" />
    <glyph glyph-name="section" unicode="&#xa7;" horiz-adv-x="1257" 
d="M625 1444q166 0 291 -102t153 -259l-162 -18q-12 98 -93 162.5t-193 64.5q-117 0 -192 -51t-75 -131q0 -36 12 -65t39.5 -50.5t53.5 -35.5t74 -27t78.5 -19.5t88.5 -17.5q43 -8 68.5 -13t66 -14.5t65.5 -18t59 -22.5t54.5 -28.5t43.5 -35.5t35.5 -45t21 -55t8.5 -67
q0 -97 -71 -170.5t-185 -95.5q91 -25 149 -100t58 -173q0 -165 -126 -269.5t-322 -104.5q-170 0 -296.5 101.5t-152.5 258.5l166 20q14 -100 94.5 -164.5t194.5 -64.5q121 0 196.5 54.5t75.5 148.5q0 27 -7 50.5t-16.5 41t-28.5 33t-34.5 26t-44.5 20.5t-48.5 16t-55.5 13
t-55.5 10t-59.5 9q-50 8 -87.5 15t-83.5 19.5t-78.5 27t-66 37t-54 50t-33.5 65.5t-13 83q0 97 69 170.5t179 95.5q-83 27 -135.5 102t-52.5 173q0 152 122 251t306 99zM571 772q-121 -6 -198.5 -60.5t-77.5 -125.5q0 -38 12.5 -68t39 -50t53 -33.5t69 -22.5t70 -13.5
t73.5 -9.5q7 -1 31 -4t35 -4q127 6 205 58t78 130q0 34 -12.5 62t-29.5 46.5t-48 33.5t-55 23t-64 15t-61.5 9t-59.5 6q-39 3 -60 8z" />
    <glyph glyph-name="dieresis" unicode="&#xa8;" horiz-adv-x="901" 
d="M211 1217q-47 0 -77 29t-30 75t30 74t77 28q46 0 76 -28.5t30 -73.5q0 -46 -30 -75t-76 -29zM690 1217q-46 0 -76 29t-30 75q0 45 30 73.5t76 28.5q47 0 77 -28t30 -74t-30 -75t-77 -29z" />
    <glyph glyph-name="copyright" unicode="&#xa9;" horiz-adv-x="1918" 
d="M125 518q0 175 62 327.5t171.5 261t264.5 170.5t335 62q242 0 433 -104.5t298 -292t107 -424.5q0 -238 -107 -426.5t-298 -293.5t-433 -105q-180 0 -335 61.5t-264.5 169.5t-171.5 261.5t-62 332.5zM244 518q0 -155 53.5 -288t147.5 -227.5t227.5 -148t288.5 -53.5
q207 0 370.5 91.5t254.5 255t91 370.5q0 203 -90.5 365.5t-254.5 255t-371 92.5t-371 -92.5t-255 -255t-91 -365.5zM1462 709l-110 -25q-35 120 -142 195t-241 75q-180 0 -297 -123t-117 -315t117 -315t303 -123q137 0 247 81.5t144 207.5l98 -27q-35 -164 -173.5 -270.5
t-317.5 -106.5q-239 0 -393 155.5t-154 397.5q0 243 154 398t395 155q175 0 312.5 -101.5t174.5 -258.5z" />
    <glyph glyph-name="guillemotleft" unicode="&#xab;" horiz-adv-x="1306" 
d="M512 0l-412 516l412 518h186l-415 -518l415 -516h-186zM993 0l-411 516l411 518h189l-418 -518l418 -516h-189z" />
    <glyph glyph-name="logicalnot" unicode="&#xac;" horiz-adv-x="1314" 
d="M104 725h1086v-582h-123v447h-963v135z" />
    <glyph glyph-name="registered" unicode="&#xae;" horiz-adv-x="1918" 
d="M125 520q0 233 106 420.5t296.5 294t430.5 106.5q242 0 433 -104.5t298 -292t107 -424.5q0 -238 -107 -426.5t-298 -293.5t-433 -105q-180 0 -335 61.5t-264.5 169.5t-171.5 261.5t-62 332.5zM1677 520q0 202 -90.5 364t-254.5 254.5t-371 92.5q-155 0 -289 -54
t-227.5 -148t-147 -226t-53.5 -283q0 -155 53.5 -288.5t147.5 -227.5t227.5 -147.5t288.5 -53.5q207 0 370.5 91t254.5 254.5t91 371.5zM1243 23l-229 403h-266v-403h-123v1011h440q142 0 235 -86.5t93 -218.5q0 -112 -69 -191.5t-183 -99.5l241 -415h-139zM1270 735
q0 92 -62.5 145.5t-165.5 53.5h-294v-410h305q96 0 156.5 58t60.5 153z" />
    <glyph glyph-name="macron" unicode="&#xaf;" horiz-adv-x="833" 
d="M729 1272h-625v108h625v-108z" />
    <glyph glyph-name="degree" unicode="&#xb0;" horiz-adv-x="1030" 
d="M516 711q-186 0 -299 109t-113 288q0 180 113 289.5t299 109.5q185 0 297.5 -109.5t112.5 -289.5q0 -179 -113 -288t-297 -109zM516 1395q-130 0 -209.5 -79t-79.5 -208q0 -128 79.5 -206.5t209.5 -78.5q129 0 208 78.5t79 206.5q0 129 -79 208t-208 79z" />
    <glyph glyph-name="plusminus" unicode="&#xb1;" horiz-adv-x="1161" 
d="M1057 145v-145h-953v145h953zM1057 788v-145h-395v-262h-162v262h-396v145h396v246h162v-246h395z" />
    <glyph glyph-name="acute" unicode="&#xb4;" horiz-adv-x="606" 
d="M270 1253h-166l220 283h178z" />
    <glyph glyph-name="paragraph" unicode="&#xb6;" horiz-adv-x="1460" 
d="M559 1444h727v-123h-188v-1778h-142v1778h-256v-1778h-141v1125q-205 0 -331 107t-124 280q1 175 126.5 282t328.5 107z" />
    <glyph glyph-name="periodcentered" unicode="&#xb7;" horiz-adv-x="421" 
d="M211 481q-47 0 -77 30t-30 75q0 46 30 75t77 29q46 0 76 -29t30 -75q0 -44 -30.5 -74.5t-75.5 -30.5z" />
    <glyph glyph-name="cedilla" unicode="&#xb8;" horiz-adv-x="655" 
d="M295 -219h-100l30 239h117l-20 -155q104 0 167.5 -59t63.5 -156q0 -91 -62.5 -147t-162.5 -56q-86 0 -148 47t-76 121l103 23q12 -38 44.5 -63.5t70.5 -25.5q49 0 79.5 30.5t30.5 76.5q0 55 -38.5 90t-98.5 35z" />
    <glyph glyph-name="guillemotright" unicode="&#xbb;" horiz-adv-x="1302" 
d="M539 516l-416 518h188l412 -518l-412 -516h-188zM1022 516l-418 518h189l411 -518l-411 -516h-189z" />
    <glyph glyph-name="questiondown" unicode="&#xbf;" horiz-adv-x="1230" 
d="M549 651h158q0 -111 -26.5 -190.5t-70.5 -129t-118 -100.5q-42 -30 -61 -44t-51 -43t-46.5 -52t-26.5 -58t-12 -73q0 -122 88.5 -204.5t220.5 -82.5q139 0 232 95t112 247l160 -30q-27 -204 -166 -333.5t-342 -129.5q-202 0 -338.5 124.5t-136.5 313.5q0 70 18 125
t58.5 100.5t77 74t102.5 73.5q93 61 130.5 128t37.5 189zM735 938q0 -46 -30 -76.5t-76 -30.5q-47 0 -77 30.5t-30 76.5t30 76t77 30q46 0 76 -30t30 -76z" />
    <glyph glyph-name="Agrave" unicode="&#xc0;" horiz-adv-x="1441" 
d="M242 0h-183l539 1444h246l538 -1444h-182l-123 340h-717zM723 1292l-311 -819h620zM406 1870h194l211 -225h-188z" />
    <glyph glyph-name="Aacute" unicode="&#xc1;" horiz-adv-x="1441" 
d="M242 0h-183l539 1444h246l538 -1444h-182l-123 340h-717zM723 1292l-311 -819h620zM809 1645h-188l213 225h194z" />
    <glyph glyph-name="Acircumflex" unicode="&#xc2;" horiz-adv-x="1441" 
d="M242 0h-183l539 1444h246l538 -1444h-182l-123 340h-717zM723 1292l-311 -819h620zM1051 1628h-158l-168 154l-166 -154h-158l240 242h168z" />
    <glyph glyph-name="Atilde" unicode="&#xc3;" horiz-adv-x="1441" 
d="M242 0h-183l539 1444h246l538 -1444h-182l-123 340h-717zM723 1292l-311 -819h620zM469 1692l-84 61q27 61 85.5 98t131.5 37q47 0 89 -18t67 -39t58.5 -39t66.5 -18q41 0 75.5 25t55.5 67l86 -62q-28 -62 -89 -99.5t-139 -37.5q-51 0 -93 18t-65 39.5t-53.5 39.5
t-60.5 18q-78 0 -131 -90z" />
    <glyph glyph-name="Adieresis" unicode="&#xc4;" horiz-adv-x="1441" 
d="M242 0h-183l539 1444h246l538 -1444h-182l-123 340h-717zM723 1292l-311 -819h620zM502 1655q-46 0 -76.5 29.5t-30.5 74.5q0 46 30.5 75.5t76.5 29.5q47 0 76.5 -29.5t29.5 -75.5t-29.5 -75t-76.5 -29zM950 1655q-46 0 -76 29t-30 75t30 75.5t76 29.5q47 0 77 -29.5
t30 -75.5t-30 -75t-77 -29z" />
    <glyph glyph-name="Aring" unicode="&#xc5;" horiz-adv-x="1441" 
d="M242 0h-183l539 1444h246l538 -1444h-182l-123 340h-717zM723 1292l-311 -819h620zM721 1544q-84 0 -138.5 52t-54.5 130q0 80 54 131.5t137 51.5t136.5 -52t53.5 -131t-53 -130.5t-135 -51.5zM721 1812q-38 0 -63 -23t-25 -60q0 -38 25 -63.5t63 -25.5q37 0 61.5 25.5
t24.5 63.5q0 36 -24.5 59.5t-61.5 23.5z" />
    <glyph glyph-name="AE" unicode="&#xc6;" horiz-adv-x="1923" 
d="M1702 662h-617v-510h717v-152h-872v293h-527l-153 -293h-191l748 1444h977v-154h-697v-485h615v-143zM930 438v881l-457 -881h457z" />
    <glyph glyph-name="Ccedilla" unicode="&#xc7;" horiz-adv-x="1681" 
d="M887 -219h-103l23 170q-198 16 -353 118.5t-242 272.5t-87 379q0 166 56.5 310t155 246t238 160t299.5 58q244 0 436.5 -149t245.5 -377l-167 -21q-40 170 -185.5 282.5t-329.5 112.5q-253 0 -416 -175t-163 -447q1 -133 44.5 -248.5t119.5 -197.5t183.5 -128.5
t231.5 -46.5q182 0 328 108t189 273l165 -30q-51 -206 -228 -346.5t-406 -153.5l-11 -86q104 0 168 -59t64 -156q0 -91 -62.5 -147t-162.5 -56q-86 0 -148 47t-76 121l103 23q12 -39 44.5 -64t71.5 -25q47 0 78 30.5t31 76.5q0 56 -37.5 90.5t-97.5 34.5z" />
    <glyph glyph-name="Egrave" unicode="&#xc8;" horiz-adv-x="1320" 
d="M1098 819v-143h-738v-524h840v-152h-1005v1444h985v-152h-820v-473h738zM403 1870h197l211 -225h-188z" />
    <glyph glyph-name="Eacute" unicode="&#xc9;" horiz-adv-x="1320" 
d="M1098 819v-143h-738v-524h840v-152h-1005v1444h985v-152h-820v-473h738zM776 1645h-188l213 225h194z" />
    <glyph glyph-name="Ecircumflex" unicode="&#xca;" horiz-adv-x="1320" 
d="M1098 819v-143h-738v-524h840v-152h-1005v1444h985v-152h-820v-473h738zM1018 1628h-158l-168 154l-166 -154h-157l239 242h168z" />
    <glyph glyph-name="Edieresis" unicode="&#xcb;" horiz-adv-x="1320" 
d="M1098 819v-143h-738v-524h840v-152h-1005v1444h985v-152h-820v-473h738zM469 1655q-46 0 -76.5 29.5t-30.5 74.5q0 46 30.5 75.5t76.5 29.5q47 0 76.5 -29.5t29.5 -75.5t-29.5 -75t-76.5 -29zM918 1655q-46 0 -76.5 29.5t-30.5 74.5q0 46 30.5 75.5t76.5 29.5t76 -29.5
t30 -75.5t-30 -75t-76 -29z" />
    <glyph glyph-name="Igrave" unicode="&#xcc;" horiz-adv-x="565" 
d="M369 0h-170v1444h170v-1444zM-39 1870h197l211 -225h-189z" />
    <glyph glyph-name="Iacute" unicode="&#xcd;" horiz-adv-x="569" 
d="M369 0h-172v1444h172v-1444zM367 1645h-189l211 225h195z" />
    <glyph glyph-name="Icircumflex" unicode="&#xce;" horiz-adv-x="555" 
d="M365 0h-172v1444h172v-1444zM602 1595h-158l-168 154l-165 -154h-158l240 244h169z" />
    <glyph glyph-name="Idieresis" unicode="&#xcf;" horiz-adv-x="561" 
d="M367 0h-172v1444h172v-1444zM57 1655q-47 0 -76.5 29t-29.5 75t29.5 75.5t76.5 29.5q46 0 76.5 -29.5t30.5 -75.5q0 -45 -30.5 -74.5t-76.5 -29.5zM506 1655q-47 0 -77 29t-30 75t30 75.5t77 29.5q46 0 76 -29.5t30 -75.5t-30 -75t-76 -29z" />
    <glyph glyph-name="Ntilde" unicode="&#xd1;" horiz-adv-x="1529" 
d="M365 0h-170v1444h231l739 -1235v1235h172v-1444h-231l-741 1235v-1235zM506 1692l-84 61q27 61 86 98t133 37q47 0 88.5 -18t66.5 -39t58 -39t66 -18q42 0 77 25.5t54 66.5l86 -62q-27 -61 -88 -99t-138 -38q-51 0 -93.5 18t-65.5 39.5t-53.5 39.5t-61.5 18
q-75 0 -131 -90z" />
    <glyph glyph-name="Ograve" unicode="&#xd2;" horiz-adv-x="1802" 
d="M125 721q0 224 98.5 400.5t275.5 275t402 98.5t402.5 -98.5t276.5 -275t99 -400.5t-99 -400t-276.5 -274t-402.5 -98t-402 98t-275.5 274t-98.5 400zM295 721q0 -270 171 -444.5t435 -176.5q265 0 435.5 175.5t170.5 445.5q0 272 -170.5 447t-435.5 175
q-264 0 -435 -175.5t-171 -446.5zM596 1870h197l211 -225h-189z" />
    <glyph glyph-name="Oacute" unicode="&#xd3;" horiz-adv-x="1802" 
d="M125 721q0 224 98.5 400.5t275.5 275t402 98.5t402.5 -98.5t276.5 -275t99 -400.5t-99 -400t-276.5 -274t-402.5 -98t-402 98t-275.5 274t-98.5 400zM295 721q0 -270 171 -444.5t435 -176.5q265 0 435.5 175.5t170.5 445.5q0 272 -170.5 447t-435.5 175
q-264 0 -435 -175.5t-171 -446.5zM969 1645h-189l211 225h197z" />
    <glyph glyph-name="Ocircumflex" unicode="&#xd4;" horiz-adv-x="1802" 
d="M125 721q0 224 98.5 400.5t275.5 275t402 98.5t402.5 -98.5t276.5 -275t99 -400.5t-99 -400t-276.5 -274t-402.5 -98t-402 98t-275.5 274t-98.5 400zM295 721q0 -270 171 -444.5t435 -176.5q265 0 435.5 175.5t170.5 445.5q0 272 -170.5 447t-435.5 175
q-264 0 -435 -175.5t-171 -446.5zM1225 1636h-156l-168 154l-166 -154h-160l242 244h168z" />
    <glyph glyph-name="Otilde" unicode="&#xd5;" horiz-adv-x="1802" 
d="M125 721q0 224 98.5 400.5t275.5 275t402 98.5t402.5 -98.5t276.5 -275t99 -400.5t-99 -400t-276.5 -274t-402.5 -98t-402 98t-275.5 274t-98.5 400zM295 721q0 -270 171 -444.5t435 -176.5q265 0 435.5 175.5t170.5 445.5q0 272 -170.5 447t-435.5 175
q-264 0 -435 -175.5t-171 -446.5zM641 1692l-86 61q28 61 86.5 98t132.5 37q47 0 88.5 -18t66.5 -39t58 -39t66 -18q43 0 77.5 25t55.5 67l86 -62q-28 -62 -89 -99.5t-139 -37.5q-51 0 -93 18t-65.5 39.5t-54 39.5t-61.5 18q-76 0 -129 -90z" />
    <glyph glyph-name="Odieresis" unicode="&#xd6;" horiz-adv-x="1802" 
d="M125 721q0 224 98.5 400.5t275.5 275t402 98.5t402.5 -98.5t276.5 -275t99 -400.5t-99 -400t-276.5 -274t-402.5 -98t-402 98t-275.5 274t-98.5 400zM295 721q0 -270 171 -444.5t435 -176.5q265 0 435.5 175.5t170.5 445.5q0 272 -170.5 447t-435.5 175
q-264 0 -435 -175.5t-171 -446.5zM678 1655q-46 0 -76.5 29.5t-30.5 74.5q0 46 30.5 75.5t76.5 29.5t76 -29.5t30 -75.5t-30 -75t-76 -29zM1126 1655q-47 0 -76.5 29t-29.5 75t29.5 75.5t76.5 29.5q46 0 76.5 -29.5t30.5 -75.5q0 -45 -30.5 -74.5t-76.5 -29.5z" />
    <glyph glyph-name="multiply" unicode="&#xd7;" horiz-adv-x="808" 
d="M705 383l-97 -94l-205 219l-204 -219l-95 94l207 223l-207 223l97 95l202 -219l205 219l97 -95l-209 -223z" />
    <glyph glyph-name="Oslash" unicode="&#xd8;" horiz-adv-x="1761" 
d="M1182 1436l164 325l161 2l-196 -393q153 -103 240 -272t87 -377q0 -220 -97 -396.5t-270 -276t-390 -99.5q-134 0 -265 43l-137 -279h-162l170 338q-169 98 -265.5 274t-96.5 396q0 166 57 310t156.5 246t240 160t302.5 58q165 0 301 -59zM295 721q0 -169 70.5 -306
t193.5 -218l555 1099q-109 47 -233 47q-168 0 -302 -80t-209 -222t-75 -320zM1466 721q0 159 -60.5 289t-168.5 213l-549 -1092q91 -31 193 -31q168 0 301.5 79.5t208.5 221.5t75 320z" />
    <glyph glyph-name="Ugrave" unicode="&#xd9;" horiz-adv-x="1533" 
d="M1182 586v858h170v-858q0 -280 -164 -458.5t-420 -178.5q-170 0 -303.5 81t-208 226.5t-74.5 329.5v858h170v-858q0 -132 50.5 -242.5t146.5 -177t219 -66.5q185 0 299.5 135.5t114.5 350.5zM467 1870h195l210 -225h-188z" />
    <glyph glyph-name="Uacute" unicode="&#xda;" horiz-adv-x="1533" 
d="M1182 586v858h170v-858q0 -280 -164 -458.5t-420 -178.5q-170 0 -303.5 81t-208 226.5t-74.5 329.5v858h170v-858q0 -132 50.5 -242.5t146.5 -177t219 -66.5q185 0 299.5 135.5t114.5 350.5zM829 1645h-186l211 225h195z" />
    <glyph glyph-name="Ucircumflex" unicode="&#xdb;" horiz-adv-x="1533" 
d="M1182 586v858h170v-858q0 -280 -164 -458.5t-420 -178.5q-170 0 -303.5 81t-208 226.5t-74.5 329.5v858h170v-858q0 -132 50.5 -242.5t146.5 -177t219 -66.5q185 0 299.5 135.5t114.5 350.5zM1092 1636h-158l-168 154l-166 -154h-158l240 244h170z" />
    <glyph glyph-name="Udieresis" unicode="&#xdc;" horiz-adv-x="1533" 
d="M1182 586v858h170v-858q0 -280 -164 -458.5t-420 -178.5q-170 0 -303.5 81t-208 226.5t-74.5 329.5v858h170v-858q0 -132 50.5 -242.5t146.5 -177t219 -66.5q185 0 299.5 135.5t114.5 350.5zM543 1655q-46 0 -76.5 29.5t-30.5 74.5q0 46 30.5 75.5t76.5 29.5
q47 0 76.5 -29.5t29.5 -75.5t-29.5 -75t-76.5 -29zM991 1655q-46 0 -76 29t-30 75t30 75.5t76 29.5q47 0 77 -29.5t30 -75.5t-30 -75t-77 -29z" />
    <glyph glyph-name="Yacute" unicode="&#xdd;" horiz-adv-x="1325" 
d="M750 537v-537h-172v537l-519 907h189l416 -744l409 744h193zM725 1645h-188l211 225h196z" />
    <glyph glyph-name="germandbls" unicode="&#xdf;" horiz-adv-x="1400" 
d="M344 967v-967h-170v983q0 216 139 356t357 140q199 0 331 -112t132 -280q0 -125 -67 -212.5t-173 -102.5q161 -20 262 -134.5t100 -277.5q0 -179 -123.5 -295t-310.5 -116q-141 0 -293 76l54 137q125 -64 229 -64q122 0 198 77.5t76 199.5q0 147 -92.5 234t-269.5 87h-86
v144h88q103 0 169.5 65.5t66.5 169.5q0 109 -83 180.5t-212 71.5q-144 0 -233 -98.5t-89 -261.5z" />
    <glyph glyph-name="agrave" unicode="&#xe0;" horiz-adv-x="1370" 
d="M1053 850v184h155v-1034h-155v182q-67 -104 -175.5 -163.5t-240.5 -59.5q-152 0 -274 71.5t-190.5 199t-68.5 286.5q0 243 150.5 401t382.5 158q132 0 240.5 -59.5t175.5 -165.5zM655 100q171 0 283.5 118t112.5 298q0 181 -112.5 298.5t-283.5 117.5
q-172 0 -283.5 -117.5t-111.5 -298.5q0 -180 111.5 -298t283.5 -118zM543 1526l219 -283h-166l-234 283h181z" />
    <glyph glyph-name="aacute" unicode="&#xe1;" horiz-adv-x="1370" 
d="M1053 850v184h155v-1034h-155v182q-67 -104 -175.5 -163.5t-240.5 -59.5q-152 0 -274 71.5t-190.5 199t-68.5 286.5q0 243 150.5 401t382.5 158q132 0 240.5 -59.5t175.5 -165.5zM655 100q171 0 283.5 118t112.5 298q0 181 -112.5 298.5t-283.5 117.5
q-172 0 -283.5 -117.5t-111.5 -298.5q0 -180 111.5 -298t283.5 -118zM969 1526l-232 -283h-166l217 283h181z" />
    <glyph glyph-name="acircumflex" unicode="&#xe2;" horiz-adv-x="1370" 
d="M1053 850v184h155v-1034h-155v182q-67 -104 -175.5 -163.5t-240.5 -59.5q-152 0 -274 71.5t-190.5 199t-68.5 286.5q0 243 150.5 401t382.5 158q132 0 240.5 -59.5t175.5 -165.5zM655 100q171 0 283.5 118t112.5 298q0 181 -112.5 298.5t-283.5 117.5
q-172 0 -283.5 -117.5t-111.5 -298.5q0 -180 111.5 -298t283.5 -118zM973 1243h-152l-166 193l-168 -193h-149l233 283h166z" />
    <glyph glyph-name="atilde" unicode="&#xe3;" horiz-adv-x="1370" 
d="M1053 850v184h155v-1034h-155v182q-67 -104 -175.5 -163.5t-240.5 -59.5q-152 0 -274 71.5t-190.5 199t-68.5 286.5q0 243 150.5 401t382.5 158q132 0 240.5 -59.5t175.5 -165.5zM655 100q171 0 283.5 118t112.5 298q0 181 -112.5 298.5t-283.5 117.5
q-172 0 -283.5 -117.5t-111.5 -298.5q0 -180 111.5 -298t283.5 -118zM408 1290l-86 47q28 61 88 98.5t131 37.5q46 0 87.5 -18.5t67.5 -41t60.5 -41t68.5 -18.5q40 0 73.5 21.5t51.5 56.5l88 -48q-28 -62 -88.5 -99.5t-136.5 -37.5q-51 0 -94 18.5t-68 40t-58 40t-65 18.5
q-37 0 -69 -20.5t-51 -53.5z" />
    <glyph glyph-name="adieresis" unicode="&#xe4;" horiz-adv-x="1370" 
d="M1053 850v184h155v-1034h-155v182q-67 -104 -175.5 -163.5t-240.5 -59.5q-152 0 -274 71.5t-190.5 199t-68.5 286.5q0 243 150.5 401t382.5 158q132 0 240.5 -59.5t175.5 -165.5zM655 100q171 0 283.5 118t112.5 298q0 181 -112.5 298.5t-283.5 117.5
q-172 0 -283.5 -117.5t-111.5 -298.5q0 -180 111.5 -298t283.5 -118zM414 1284q-47 0 -78 29.5t-31 75.5q0 45 30.5 73.5t78.5 28.5q46 0 76 -28.5t30 -73.5q0 -46 -30 -75.5t-76 -29.5zM893 1284q-46 0 -76.5 29.5t-30.5 75.5q0 45 30.5 73.5t76.5 28.5q47 0 76.5 -28
t29.5 -74t-29.5 -75.5t-76.5 -29.5z" />
    <glyph glyph-name="aring" unicode="&#xe5;" horiz-adv-x="1370" 
d="M1053 850v184h155v-1034h-155v182q-67 -104 -175.5 -163.5t-240.5 -59.5q-152 0 -274 71.5t-190.5 199t-68.5 286.5q0 243 150.5 401t382.5 158q132 0 240.5 -59.5t175.5 -165.5zM655 100q171 0 283.5 118t112.5 298q0 181 -112.5 298.5t-283.5 117.5
q-172 0 -283.5 -117.5t-111.5 -298.5q0 -180 111.5 -298t283.5 -118zM674 1198q-107 0 -176.5 66.5t-69.5 169.5t69.5 169t176.5 66t175.5 -66t68.5 -169t-68.5 -169.5t-175.5 -66.5zM674 1573q-63 0 -103 -39t-39 -100q0 -62 39.5 -102t102.5 -40q60 0 99.5 40.5
t39.5 101.5t-39.5 100t-99.5 39z" />
    <glyph glyph-name="ae" unicode="&#xe6;" horiz-adv-x="2217" 
d="M2114 530q0 -14 -5 -92h-913q25 -153 132.5 -245.5t264.5 -92.5q112 0 196.5 50.5t135.5 146.5l135 -55q-47 -123 -178.5 -203t-288.5 -80q-140 0 -256 65t-170 173v-197h-125v172q-70 -100 -177 -156.5t-236 -56.5q-228 0 -376.5 157.5t-148.5 399.5q0 243 148 401
t377 158q129 0 236.5 -57.5t176.5 -157.5v174h125v-188q57 108 160.5 168.5t243.5 60.5q236 0 389.5 -154.5t153.5 -390.5zM260 516q0 -184 111.5 -304t283.5 -120q170 0 283 118t113 306q0 186 -112 306t-284 120q-173 0 -284 -120t-111 -306zM1190 571h766
q-6 157 -115 259t-274 102q-155 0 -259 -101.5t-118 -259.5z" />
    <glyph glyph-name="ccedilla" unicode="&#xe7;" horiz-adv-x="1249" 
d="M672 -219h-103l23 180q-216 19 -352 173t-136 382q0 243 153 401t386 158q187 0 329 -107.5t171 -271.5l-152 -20q-29 114 -127 188t-221 74q-164 0 -273.5 -120t-109.5 -302t109 -301t274 -119q124 0 220.5 72t127.5 184l154 -20q-31 -147 -152 -248.5t-284 -120.5
l-13 -98q104 0 168 -59t64 -156q0 -90 -63 -146.5t-163 -56.5q-86 0 -147.5 47t-75.5 121l103 23q12 -39 44 -64t70 -25q49 0 80 30.5t31 76.5q0 56 -37.5 90.5t-97.5 34.5z" />
    <glyph glyph-name="egrave" unicode="&#xe8;" horiz-adv-x="1300" 
d="M651 100q116 0 217 59.5t140 147.5l139 -51q-50 -129 -187 -213t-298 -84q-243 0 -400.5 160.5t-157.5 408.5q0 117 41 218.5t113.5 173.5t174.5 113.5t220 41.5q236 0 389.5 -155.5t153.5 -393.5q0 -38 -2 -61l-930 2q19 -163 126 -265t261 -102zM268 602l764 -2
q-22 149 -127 240.5t-258 91.5q-150 0 -253.5 -91.5t-125.5 -238.5zM547 1526l219 -283h-166l-233 283h180z" />
    <glyph glyph-name="eacute" unicode="&#xe9;" horiz-adv-x="1300" 
d="M651 100q116 0 217 59.5t140 147.5l139 -51q-50 -129 -187 -213t-298 -84q-243 0 -400.5 160.5t-157.5 408.5q0 117 41 218.5t113.5 173.5t174.5 113.5t220 41.5q236 0 389.5 -155.5t153.5 -393.5q0 -38 -2 -61l-930 2q19 -163 126 -265t261 -102zM268 602l764 -2
q-22 149 -127 240.5t-258 91.5q-150 0 -253.5 -91.5t-125.5 -238.5zM956 1526l-231 -283h-166l217 283h180z" />
    <glyph glyph-name="ecircumflex" unicode="&#xea;" horiz-adv-x="1300" 
d="M651 100q116 0 217 59.5t140 147.5l139 -51q-50 -129 -187 -213t-298 -84q-243 0 -400.5 160.5t-157.5 408.5q0 117 41 218.5t113.5 173.5t174.5 113.5t220 41.5q236 0 389.5 -155.5t153.5 -393.5q0 -38 -2 -61l-930 2q19 -163 126 -265t261 -102zM268 602l764 -2
q-22 149 -127 240.5t-258 91.5q-150 0 -253.5 -91.5t-125.5 -238.5zM977 1243h-152l-166 193l-167 -193h-150l233 283h166z" />
    <glyph glyph-name="edieresis" unicode="&#xeb;" horiz-adv-x="1300" 
d="M651 100q116 0 217 59.5t140 147.5l139 -51q-50 -129 -187 -213t-298 -84q-243 0 -400.5 160.5t-157.5 408.5q0 117 41 218.5t113.5 173.5t174.5 113.5t220 41.5q236 0 389.5 -155.5t153.5 -393.5q0 -38 -2 -61l-930 2q19 -163 126 -265t261 -102zM268 602l764 -2
q-22 149 -127 240.5t-258 91.5q-150 0 -253.5 -91.5t-125.5 -238.5zM416 1227q-46 0 -76.5 29.5t-30.5 74.5q0 46 30.5 75.5t76.5 29.5q47 0 76.5 -29.5t29.5 -75.5t-29.5 -75t-76.5 -29zM897 1227q-47 0 -76.5 29t-29.5 75t29.5 75.5t76.5 29.5t77 -29.5t30 -75.5t-30 -75
t-77 -29z" />
    <glyph glyph-name="igrave" unicode="&#xec;" horiz-adv-x="487" 
d="M324 0h-158v1034h158v-1034zM119 1526l219 -283h-166l-233 283h180z" />
    <glyph glyph-name="iacute" unicode="&#xed;" horiz-adv-x="487" 
d="M326 0h-156v1034h156v-1034zM549 1526l-234 -283h-165l219 283h180z" />
    <glyph glyph-name="icircumflex" unicode="&#xee;" horiz-adv-x="466" 
d="M309 0h-155v1034h155v-1034zM551 1243h-152l-166 193l-170 -193h-147l231 283h168z" />
    <glyph glyph-name="idieresis" unicode="&#xef;" horiz-adv-x="479" 
d="M319 0h-157v1034h157v-1034zM0 1227q-47 0 -76.5 29t-29.5 75t29.5 75.5t76.5 29.5t76.5 -29.5t29.5 -75.5t-29.5 -75t-76.5 -29zM481 1227q-47 0 -76.5 29t-29.5 75t29.5 75.5t76.5 29.5q46 0 76.5 -29.5t30.5 -75.5q0 -45 -30.5 -74.5t-76.5 -29.5z" />
    <glyph glyph-name="ntilde" unicode="&#xf1;" 
d="M672 1075q195 0 310.5 -128t115.5 -329v-618h-156v618q0 140 -76.5 227t-210.5 87q-138 0 -238 -94t-100 -234v-604h-155v1034h155v-145q54 86 150.5 136t204.5 50zM356 1290l-84 47q28 61 87.5 98.5t129.5 37.5q47 0 89 -18.5t68.5 -41t61 -41t68.5 -18.5q39 0 73 22
t52 56l86 -48q-27 -61 -87.5 -99t-137.5 -38q-49 0 -92 18.5t-68 40t-58.5 40t-66.5 18.5q-37 0 -69.5 -20.5t-51.5 -53.5z" />
    <glyph glyph-name="ograve" unicode="&#xf2;" horiz-adv-x="1310" 
d="M1208 516q0 -244 -155.5 -400.5t-397.5 -156.5q-243 0 -397 156t-154 401q0 246 154 402.5t397 156.5q242 0 397.5 -156.5t155.5 -402.5zM1051 516q0 181 -112 298.5t-284 117.5t-283.5 -117.5t-111.5 -298.5q0 -180 111.5 -298t283.5 -118t284 118t112 298zM530 1526
l220 -283h-166l-234 283h180z" />
    <glyph glyph-name="oacute" unicode="&#xf3;" horiz-adv-x="1310" 
d="M1208 516q0 -244 -155.5 -400.5t-397.5 -156.5q-243 0 -397 156t-154 401q0 246 154 402.5t397 156.5q242 0 397.5 -156.5t155.5 -402.5zM1051 516q0 181 -112 298.5t-284 117.5t-283.5 -117.5t-111.5 -298.5q0 -180 111.5 -298t283.5 -118t284 118t112 298zM956 1526
l-233 -283h-166l219 283h180z" />
    <glyph glyph-name="ocircumflex" unicode="&#xf4;" horiz-adv-x="1310" 
d="M1208 516q0 -244 -155.5 -400.5t-397.5 -156.5q-243 0 -397 156t-154 401q0 246 154 402.5t397 156.5q242 0 397.5 -156.5t155.5 -402.5zM1051 516q0 181 -112 298.5t-284 117.5t-283.5 -117.5t-111.5 -298.5q0 -180 111.5 -298t283.5 -118t284 118t112 298zM975 1243
h-150l-168 193l-168 -193h-149l233 283h168z" />
    <glyph glyph-name="otilde" unicode="&#xf5;" horiz-adv-x="1310" 
d="M1208 516q0 -244 -155.5 -400.5t-397.5 -156.5q-243 0 -397 156t-154 401q0 246 154 402.5t397 156.5q242 0 397.5 -156.5t155.5 -402.5zM1051 516q0 181 -112 298.5t-284 117.5t-283.5 -117.5t-111.5 -298.5q0 -180 111.5 -298t283.5 -118t284 118t112 298zM406 1290
l-84 47q28 61 87.5 98.5t129.5 37.5q46 0 88 -18.5t68 -41t61 -41t69 -18.5q39 0 73.5 22t49.5 56l88 -48q-27 -61 -87.5 -99t-137.5 -38q-51 0 -94 18.5t-67.5 40t-57.5 40t-66 18.5q-37 0 -69 -20.5t-51 -53.5z" />
    <glyph glyph-name="odieresis" unicode="&#xf6;" horiz-adv-x="1310" 
d="M1208 516q0 -244 -155.5 -400.5t-397.5 -156.5q-243 0 -397 156t-154 401q0 246 154 402.5t397 156.5q242 0 397.5 -156.5t155.5 -402.5zM1051 516q0 181 -112 298.5t-284 117.5t-283.5 -117.5t-111.5 -298.5q0 -180 111.5 -298t283.5 -118t284 118t112 298zM416 1227
q-47 0 -77 29t-30 75t30 75.5t77 29.5q46 0 76 -29.5t30 -75.5t-30 -75t-76 -29zM897 1227q-47 0 -78 29t-31 75t31 75.5t78 29.5q46 0 76.5 -29.5t30.5 -75.5q0 -45 -30.5 -74.5t-76.5 -29.5z" />
    <glyph glyph-name="divide" unicode="&#xf7;" horiz-adv-x="1130" 
d="M565 41q-43 0 -70.5 26.5t-27.5 69.5q0 40 27.5 66t70.5 26q41 0 69 -26t28 -66q0 -42 -27.5 -69t-69.5 -27zM565 854q-43 0 -70.5 26.5t-27.5 69.5q0 40 27.5 66t70.5 26q41 0 69 -26t28 -66q0 -42 -27.5 -69t-69.5 -27zM1026 631v-144h-922v144h922z" />
    <glyph glyph-name="oslash" unicode="&#xf8;" horiz-adv-x="1320" 
d="M872 1038l95 191h149l-127 -252q107 -73 167.5 -193.5t60.5 -267.5q0 -244 -156 -400.5t-399 -156.5q-86 0 -173 23l-71 -146h-150l99 197q-123 71 -193 197.5t-70 285.5q0 246 156.5 402.5t401.5 156.5q112 0 210 -37zM246 516q0 -117 47.5 -211.5t132.5 -152.5l387 772
q-73 28 -151 28q-183 0 -299.5 -122.5t-116.5 -313.5zM1073 516q0 214 -145 340l-381 -760q49 -14 115 -14q180 0 295.5 122.5t115.5 311.5z" />
    <glyph glyph-name="ugrave" unicode="&#xf9;" 
d="M567 -41q-195 0 -310.5 128t-115.5 329v618h156v-618q0 -140 77 -228t212 -88q137 0 236.5 94.5t99.5 233.5v606h155v-1034h-155v145q-52 -85 -149.5 -135.5t-205.5 -50.5zM504 1526l219 -285h-166l-233 283z" />
    <glyph glyph-name="uacute" unicode="&#xfa;" 
d="M567 -41q-195 0 -310.5 128t-115.5 329v618h156v-618q0 -140 77 -228t212 -88q137 0 236.5 94.5t99.5 233.5v606h155v-1034h-155v145q-52 -85 -149.5 -135.5t-205.5 -50.5zM922 1524l-234 -283h-166l219 283h181z" />
    <glyph glyph-name="ucircumflex" unicode="&#xfb;" 
d="M567 -41q-195 0 -310.5 128t-115.5 329v618h156v-618q0 -140 77 -228t212 -88q137 0 236.5 94.5t99.5 233.5v606h155v-1034h-155v145q-52 -85 -149.5 -135.5t-205.5 -50.5zM930 1241h-152l-168 193l-168 -193h-147l231 285h168z" />
    <glyph glyph-name="udieresis" unicode="&#xfc;" 
d="M567 -41q-195 0 -310.5 128t-115.5 329v618h156v-618q0 -140 77 -228t212 -88q137 0 236.5 94.5t99.5 233.5v606h155v-1034h-155v145q-52 -85 -149.5 -135.5t-205.5 -50.5zM369 1225q-47 0 -77 29.5t-30 74.5q0 46 30 75.5t77 29.5t76.5 -29.5t29.5 -75.5
q0 -45 -29.5 -74.5t-76.5 -29.5zM850 1225q-47 0 -77 29.5t-30 74.5q0 46 30 75.5t77 29.5q46 0 76 -29.5t30 -75.5q0 -44 -30 -74t-76 -30z" />
    <glyph glyph-name="yacute" unicode="&#xfd;" horiz-adv-x="1165" 
d="M131 -426v137q82 -28 137 -28q32 0 58.5 8.5t49 28.5t38.5 38t34 54t28 57.5t28.5 67t27.5 65.5l-464 1032h172l368 -839l324 839h166l-412 -1048q-23 -57 -35.5 -87.5t-35 -80t-39 -77t-41.5 -64.5t-49 -57t-54.5 -40t-65.5 -28.5t-75 -8.5q-79 0 -160 31zM911 1526
l-233 -283h-166l219 283h180z" />
    <glyph glyph-name="ydieresis" unicode="&#xff;" horiz-adv-x="1165" 
d="M131 -426v137q82 -28 137 -28q32 0 58.5 8.5t49 28.5t38.5 38t34 54t28 57.5t28.5 67t27.5 65.5l-464 1032h172l368 -839l324 839h166l-412 -1048q-23 -57 -35.5 -87.5t-35 -80t-39 -77t-41.5 -64.5t-49 -57t-54.5 -40t-65.5 -28.5t-75 -8.5q-79 0 -160 31zM342 1227
q-46 0 -76 29t-30 75t30 75.5t76 29.5q47 0 77 -29.5t30 -75.5t-30 -75t-77 -29zM823 1227q-47 0 -76.5 29t-29.5 75t29.5 75.5t76.5 29.5t77 -29.5t30 -75.5t-30 -75t-77 -29z" />
    <glyph glyph-name="Amacron" unicode="&#x100;" horiz-adv-x="1441" 
d="M242 0h-183l539 1444h246l538 -1444h-182l-123 340h-717zM723 1292l-311 -819h620zM1038 1694h-624v108h624v-108z" />
    <glyph glyph-name="amacron" unicode="&#x101;" horiz-adv-x="1370" 
d="M1053 850v184h155v-1034h-155v182q-67 -104 -175.5 -163.5t-240.5 -59.5q-152 0 -274 71.5t-190.5 199t-68.5 286.5q0 243 150.5 401t382.5 158q132 0 240.5 -59.5t175.5 -165.5zM655 100q171 0 283.5 118t112.5 298q0 181 -112.5 298.5t-283.5 117.5
q-172 0 -283.5 -117.5t-111.5 -298.5q0 -180 111.5 -298t283.5 -118zM967 1296h-627v109h627v-109z" />
    <glyph glyph-name="Abreve" unicode="&#x102;" horiz-adv-x="1441" 
d="M242 0h-183l539 1444h246l538 -1444h-182l-123 340h-717zM723 1292l-311 -819h620zM885 1878h121q1 -107 -78 -176.5t-201 -69.5q-123 0 -203 69.5t-80 176.5h123q0 -57 45.5 -94t114.5 -37t114 37t44 94z" />
    <glyph glyph-name="abreve" unicode="&#x103;" horiz-adv-x="1370" 
d="M1053 850v184h155v-1034h-155v182q-67 -104 -175.5 -163.5t-240.5 -59.5q-152 0 -274 71.5t-190.5 199t-68.5 286.5q0 243 150.5 401t382.5 158q132 0 240.5 -59.5t175.5 -165.5zM655 100q171 0 283.5 118t112.5 298q0 181 -112.5 298.5t-283.5 117.5
q-172 0 -283.5 -117.5t-111.5 -298.5q0 -180 111.5 -298t283.5 -118zM791 1493h124q0 -117 -76 -193.5t-194 -76.5q-117 0 -192.5 76.5t-77.5 193.5h125q0 -67 41 -110.5t104 -43.5q64 0 105 43t41 111z" />
    <glyph glyph-name="Aogonek" unicode="&#x104;" horiz-adv-x="1540" 
d="M1202 0h-2l-123 340h-717l-118 -340h-183l539 1444h246l538 -1444h-22q-221 -60 -221 -207q0 -111 94.5 -178t247.5 -72v-114q-196 0 -322.5 96.5t-126.5 245.5q0 74 45 133.5t125 95.5zM723 1292l-311 -819h620z" />
    <glyph glyph-name="aogonek" unicode="&#x105;" horiz-adv-x="1474" 
d="M1053 8v174q-67 -104 -175.5 -163.5t-240.5 -59.5q-152 0 -274 71.5t-190.5 199t-68.5 286.5q0 243 150.5 401t382.5 158q132 0 240.5 -59.5t175.5 -165.5v184h155v-1034h-16q-223 -60 -223 -207q0 -111 95 -178t249 -72v-114q-197 0 -323 96t-126 246q0 79 49.5 141
t139.5 96zM655 100q171 0 283.5 118t112.5 298q0 181 -112.5 298.5t-283.5 117.5q-172 0 -283.5 -117.5t-111.5 -298.5q0 -180 111.5 -298t283.5 -118z" />
    <glyph glyph-name="Cacute" unicode="&#x106;" horiz-adv-x="1681" 
d="M1391 481l165 -30q-36 -143 -135 -257.5t-242.5 -179.5t-304.5 -65t-300 58t-237.5 159.5t-155 245t-56.5 309.5t56.5 310t155 246t238 160t299.5 58q244 0 436.5 -149t245.5 -377l-167 -21q-40 170 -185.5 282.5t-329.5 112.5q-253 0 -416 -175t-163 -447
q1 -133 44.5 -248.5t119.5 -197.5t183.5 -128.5t231.5 -46.5q182 0 328 108t189 273zM920 1653h-187l211 225h195z" />
    <glyph glyph-name="cacute" unicode="&#x107;" horiz-adv-x="1249" 
d="M1143 696l-152 -20q-29 114 -127 188t-221 74q-164 0 -273.5 -120t-109.5 -302t109 -301t274 -119q124 0 220.5 72t127.5 184l154 -20q-35 -163 -177 -268t-325 -105q-235 0 -387 157t-152 400t153 401t386 158q187 0 329 -107.5t171 -271.5zM958 1526l-231 -283h-166
l219 283h178z" />
    <glyph glyph-name="Ccircumflex" unicode="&#x108;" horiz-adv-x="1681" 
d="M1391 481l165 -30q-36 -143 -135 -257.5t-242.5 -179.5t-304.5 -65t-300 58t-237.5 159.5t-155 245t-56.5 309.5t56.5 310t155 246t238 160t299.5 58q244 0 436.5 -149t245.5 -377l-167 -21q-40 170 -185.5 282.5t-329.5 112.5q-253 0 -416 -175t-163 -447
q1 -133 44.5 -248.5t119.5 -197.5t183.5 -128.5t231.5 -46.5q182 0 328 108t189 273zM1198 1636h-158l-168 154l-165 -154h-158l239 244h170z" />
    <glyph glyph-name="ccircumflex" unicode="&#x109;" horiz-adv-x="1249" 
d="M1143 696l-152 -20q-29 114 -127 188t-221 74q-164 0 -273.5 -120t-109.5 -302t109 -301t274 -119q124 0 220.5 72t127.5 184l154 -20q-35 -163 -177 -268t-325 -105q-235 0 -387 157t-152 400t153 401t386 158q187 0 329 -107.5t171 -271.5zM963 1243h-150l-168 193
l-168 -193h-149l233 283h166z" />
    <glyph glyph-name="Cdotaccent" unicode="&#x10a;" horiz-adv-x="1681" 
d="M1391 481l165 -30q-36 -143 -135 -257.5t-242.5 -179.5t-304.5 -65t-300 58t-237.5 159.5t-155 245t-56.5 309.5t56.5 310t155 246t238 160t299.5 58q244 0 436.5 -149t245.5 -377l-167 -21q-40 170 -185.5 282.5t-329.5 112.5q-253 0 -416 -175t-163 -447
q1 -133 44.5 -248.5t119.5 -197.5t183.5 -128.5t231.5 -46.5q182 0 328 108t189 273zM842 1655q-47 0 -77 28t-30 72q1 44 31 71t76 27q47 0 76.5 -27t29.5 -71t-29.5 -72t-76.5 -28z" />
    <glyph glyph-name="cdotaccent" unicode="&#x10b;" horiz-adv-x="1249" 
d="M1143 696l-152 -20q-29 114 -127 188t-221 74q-164 0 -273.5 -120t-109.5 -302t109 -301t274 -119q124 0 220.5 72t127.5 184l154 -20q-35 -163 -177 -268t-325 -105q-235 0 -387 157t-152 400t153 401t386 158q187 0 329 -107.5t171 -271.5zM643 1227q-46 0 -76 30
t-30 76t30 75.5t76 29.5q47 0 77 -29.5t30 -75.5t-30 -76t-77 -30z" />
    <glyph glyph-name="Ccaron" unicode="&#x10c;" horiz-adv-x="1681" 
d="M1391 481l165 -30q-36 -143 -135 -257.5t-242.5 -179.5t-304.5 -65t-300 58t-237.5 159.5t-155 245t-56.5 309.5t56.5 310t155 246t238 160t299.5 58q244 0 436.5 -149t245.5 -377l-167 -21q-40 170 -185.5 282.5t-329.5 112.5q-253 0 -416 -175t-163 -447
q1 -133 44.5 -248.5t119.5 -197.5t183.5 -128.5t231.5 -46.5q182 0 328 108t189 273zM545 1870h160l165 -154l166 154h158l-240 -242h-170z" />
    <glyph glyph-name="ccaron" unicode="&#x10d;" horiz-adv-x="1249" 
d="M1143 696l-152 -20q-29 114 -127 188t-221 74q-164 0 -273.5 -120t-109.5 -302t109 -301t274 -119q124 0 220.5 72t127.5 184l154 -20q-35 -163 -177 -268t-325 -105q-235 0 -387 157t-152 400t153 401t386 158q187 0 329 -107.5t171 -271.5zM326 1526h149l168 -193
l166 193h152l-236 -283h-166z" />
    <glyph glyph-name="Dcaron" unicode="&#x10e;" horiz-adv-x="1599" 
d="M635 0h-440v1444h440q378 0 609 -199t231 -524q0 -214 -104.5 -378t-295.5 -253.5t-440 -89.5zM1307 721q0 261 -184.5 416t-487.5 155h-270v-1140h270q303 0 487.5 155t184.5 414zM420 1870h158l165 -154l168 154h158l-240 -242h-170z" />
    <glyph glyph-name="dcaron" unicode="&#x10f;" horiz-adv-x="1566" 
d="M1047 860v645h155v-1505h-151v178q-67 -103 -174.5 -161t-237.5 -58q-232 0 -383.5 158t-151.5 399q0 243 151.5 401t383.5 158q129 0 235 -57t173 -158zM260 516q0 -178 112 -291.5t283 -113.5q172 0 284 115t112 290q0 177 -112 292.5t-284 115.5t-283.5 -115.5
t-111.5 -292.5zM1456 1300q-40 0 -64 26t-24 67t25 66.5t65 25.5q47 0 77 -34.5t30 -88.5q0 -75 -36.5 -149t-92.5 -117l-58 45q34 31 56 75.5t22 83.5z" />
    <glyph glyph-name="Dcroat" unicode="&#x110;" horiz-adv-x="1693" 
d="M289 756h-230v143h230v545h440q378 0 609 -199t231 -524q0 -214 -104.5 -378t-295.5 -253.5t-440 -89.5h-440v756zM1401 721q0 261 -184.5 416t-487.5 155h-270v-393h420v-143h-420v-604h270q303 0 487.5 155t184.5 414z" />
    <glyph glyph-name="dcroat" unicode="&#x111;" horiz-adv-x="1464" 
d="M1047 860v393h-433v117h433v135h155v-135h195v-117h-195v-1253h-151v178q-67 -103 -174.5 -161t-237.5 -58q-232 0 -383.5 158t-151.5 399q0 243 151.5 401t383.5 158q129 0 235 -57t173 -158zM260 516q0 -178 112 -291.5t283 -113.5q172 0 284 115t112 290
q0 177 -112 292.5t-284 115.5t-283.5 -115.5t-111.5 -292.5z" />
    <glyph glyph-name="Emacron" unicode="&#x112;" horiz-adv-x="1320" 
d="M1098 819v-143h-738v-524h840v-152h-1005v1444h985v-152h-820v-473h738zM1006 1694h-625v108h625v-108z" />
    <glyph glyph-name="emacron" unicode="&#x113;" horiz-adv-x="1300" 
d="M651 100q116 0 217 59.5t140 147.5l139 -51q-50 -129 -187 -213t-298 -84q-243 0 -400.5 160.5t-157.5 408.5q0 117 41 218.5t113.5 173.5t174.5 113.5t220 41.5q236 0 389.5 -155.5t153.5 -393.5q0 -38 -2 -61l-930 2q19 -163 126 -265t261 -102zM268 602l764 -2
q-22 149 -127 240.5t-258 91.5q-150 0 -253.5 -91.5t-125.5 -238.5zM969 1296h-625v109h625v-109z" />
    <glyph glyph-name="Ebreve" unicode="&#x114;" horiz-adv-x="1320" 
d="M1098 819v-143h-738v-524h840v-152h-1005v1444h985v-152h-820v-473h738zM852 1870h121q1 -107 -78 -176.5t-201 -69.5q-123 0 -202.5 69.5t-79.5 176.5h123q0 -57 45 -94t114 -37t114 37t44 94z" />
    <glyph glyph-name="ebreve" unicode="&#x115;" horiz-adv-x="1300" 
d="M651 100q116 0 217 59.5t140 147.5l139 -51q-50 -129 -187 -213t-298 -84q-243 0 -400.5 160.5t-157.5 408.5q0 117 41 218.5t113.5 173.5t174.5 113.5t220 41.5q236 0 389.5 -155.5t153.5 -393.5q0 -38 -2 -61l-930 2q19 -163 126 -265t261 -102zM268 602l764 -2
q-22 149 -127 240.5t-258 91.5q-150 0 -253.5 -91.5t-125.5 -238.5zM803 1493h123q1 -117 -75.5 -193.5t-193.5 -76.5q-118 0 -194 76.5t-76 193.5h125q0 -67 41 -110.5t104 -43.5t104.5 43.5t41.5 110.5z" />
    <glyph glyph-name="Edotaccent" unicode="&#x116;" horiz-adv-x="1320" 
d="M1098 819v-143h-738v-524h840v-152h-1005v1444h985v-152h-820v-473h738zM694 1655q-49 0 -77.5 27.5t-28.5 72.5q0 44 29.5 71t76.5 27q48 0 77.5 -27t29.5 -71t-30 -72t-77 -28z" />
    <glyph glyph-name="edotaccent" unicode="&#x117;" horiz-adv-x="1300" 
d="M651 100q116 0 217 59.5t140 147.5l139 -51q-50 -129 -187 -213t-298 -84q-243 0 -400.5 160.5t-157.5 408.5q0 117 41 218.5t113.5 173.5t174.5 113.5t220 41.5q236 0 389.5 -155.5t153.5 -393.5q0 -38 -2 -61l-930 2q19 -163 126 -265t261 -102zM268 602l764 -2
q-22 149 -127 240.5t-258 91.5q-150 0 -253.5 -91.5t-125.5 -238.5zM657 1243q-47 0 -76.5 30t-29.5 77q0 46 29.5 75t76.5 29q46 0 76.5 -29.5t30.5 -74.5q0 -47 -30.5 -77t-76.5 -30z" />
    <glyph glyph-name="Eogonek" unicode="&#x118;" horiz-adv-x="1320" 
d="M924 0h-729v1444h985v-152h-820v-473h738v-143h-738v-524h840v-152h-119q-223 -60 -223 -207q0 -111 94.5 -178t247.5 -72v-114q-195 0 -320.5 96t-125.5 246q0 74 45 133.5t125 95.5z" />
    <glyph glyph-name="eogonek" unicode="&#x119;" horiz-adv-x="1300" 
d="M631 -41q-231 11 -379 170.5t-148 398.5q0 117 41 218.5t113.5 173.5t174.5 113.5t220 41.5q236 0 389.5 -155.5t153.5 -393.5q0 -38 -2 -61l-930 2q19 -163 126 -265t261 -102q116 0 217 59.5t140 147.5l139 -51q-39 -105 -139.5 -182t-229.5 -103q-143 -62 -143 -180
q0 -111 94.5 -178t247.5 -72v-114q-196 0 -321.5 96t-125.5 246q0 115 101 190zM268 602l764 -2q-22 149 -127 240.5t-258 91.5q-150 0 -253.5 -91.5t-125.5 -238.5z" />
    <glyph glyph-name="Ecaron" unicode="&#x11a;" horiz-adv-x="1320" 
d="M1098 819v-143h-738v-524h840v-152h-1005v1444h985v-152h-820v-473h738zM375 1870h155l168 -162l168 162h156l-240 -252h-168z" />
    <glyph glyph-name="ecaron" unicode="&#x11b;" horiz-adv-x="1300" 
d="M651 100q116 0 217 59.5t140 147.5l139 -51q-50 -129 -187 -213t-298 -84q-243 0 -400.5 160.5t-157.5 408.5q0 117 41 218.5t113.5 173.5t174.5 113.5t220 41.5q236 0 389.5 -155.5t153.5 -393.5q0 -38 -2 -61l-930 2q19 -163 126 -265t261 -102zM268 602l764 -2
q-22 149 -127 240.5t-258 91.5q-150 0 -253.5 -91.5t-125.5 -238.5zM340 1526h149l168 -193l166 193h152l-236 -283h-166z" />
    <glyph glyph-name="Gcircumflex" unicode="&#x11c;" horiz-adv-x="1777" 
d="M1481 643l-584 2v152h754q13 -182 -37 -339.5t-148.5 -269t-245 -175.5t-319.5 -64q-222 0 -399.5 99.5t-277 276t-99.5 396.5q0 222 99.5 398.5t276.5 276t400 99.5q229 0 415 -122t245 -310l-158 -49q-44 143 -186.5 236t-315.5 93q-174 0 -312.5 -79t-216 -221
t-77.5 -322q0 -132 45.5 -247.5t125 -197.5t192.5 -129t243 -47q160 0 292 71t208.5 195.5t79.5 276.5zM1225 1628h-158l-166 154l-166 -154h-160l240 242h170z" />
    <glyph glyph-name="gcircumflex" unicode="&#x11d;" horiz-adv-x="1363" 
d="M154 -154l149 37q34 -113 135 -183.5t228 -70.5q169 0 275 103.5t106 283.5v164q-68 -99 -173.5 -154t-234.5 -55q-232 0 -383.5 154.5t-151.5 390.5q0 241 151.5 398t383.5 157q131 0 236 -55t172 -154v172h155v-1018q0 -244 -147.5 -386t-382.5 -142q-187 0 -331 99.5
t-187 258.5zM655 113q172 0 284 114t112 289q0 181 -112 298.5t-284 117.5t-283.5 -117.5t-111.5 -298.5q0 -175 112.5 -289t282.5 -114zM973 1243h-152l-166 193l-170 -193h-147l231 283h168z" />
    <glyph glyph-name="Gbreve" unicode="&#x11e;" horiz-adv-x="1777" 
d="M1481 643l-584 2v152h754q13 -182 -37 -339.5t-148.5 -269t-245 -175.5t-319.5 -64q-222 0 -399.5 99.5t-277 276t-99.5 396.5q0 222 99.5 398.5t276.5 276t400 99.5q229 0 415 -122t245 -310l-158 -49q-44 143 -186.5 236t-315.5 93q-174 0 -312.5 -79t-216 -221
t-77.5 -322q0 -132 45.5 -247.5t125 -197.5t192.5 -129t243 -47q160 0 292 71t208.5 195.5t79.5 276.5zM1061 1870h121q0 -107 -79 -176.5t-202 -69.5q-122 0 -201 69.5t-79 176.5h122q0 -57 44.5 -94t113.5 -37t114.5 37t45.5 94z" />
    <glyph glyph-name="gbreve" unicode="&#x11f;" horiz-adv-x="1363" 
d="M154 -154l149 37q34 -113 135 -183.5t228 -70.5q169 0 275 103.5t106 283.5v164q-68 -99 -173.5 -154t-234.5 -55q-232 0 -383.5 154.5t-151.5 390.5q0 241 151.5 398t383.5 157q131 0 236 -55t172 -154v172h155v-1018q0 -244 -147.5 -386t-382.5 -142q-187 0 -331 99.5
t-187 258.5zM655 113q172 0 284 114t112 289q0 181 -112 298.5t-284 117.5t-283.5 -117.5t-111.5 -298.5q0 -175 112.5 -289t282.5 -114zM803 1493h125q0 -117 -77 -193.5t-194 -76.5t-193.5 76.5t-76.5 193.5h125q0 -67 41 -110.5t104 -43.5t104.5 43.5t41.5 110.5z" />
    <glyph glyph-name="Gdotaccent" unicode="&#x120;" horiz-adv-x="1777" 
d="M1481 643l-584 2v152h754q13 -182 -37 -339.5t-148.5 -269t-245 -175.5t-319.5 -64q-222 0 -399.5 99.5t-277 276t-99.5 396.5q0 222 99.5 398.5t276.5 276t400 99.5q229 0 415 -122t245 -310l-158 -49q-44 143 -186.5 236t-315.5 93q-174 0 -312.5 -79t-216 -221
t-77.5 -322q0 -132 45.5 -247.5t125 -197.5t192.5 -129t243 -47q160 0 292 71t208.5 195.5t79.5 276.5zM901 1655q-47 0 -76.5 28t-29.5 72q1 44 30.5 71t75.5 27q48 0 77.5 -27t29.5 -71t-30 -72t-77 -28z" />
    <glyph glyph-name="gdotaccent" unicode="&#x121;" horiz-adv-x="1363" 
d="M154 -154l149 37q34 -113 135 -183.5t228 -70.5q169 0 275 103.5t106 283.5v164q-68 -99 -173.5 -154t-234.5 -55q-232 0 -383.5 154.5t-151.5 390.5q0 241 151.5 398t383.5 157q131 0 236 -55t172 -154v172h155v-1018q0 -244 -147.5 -386t-382.5 -142q-187 0 -331 99.5
t-187 258.5zM655 113q172 0 284 114t112 289q0 181 -112 298.5t-284 117.5t-283.5 -117.5t-111.5 -298.5q0 -175 112.5 -289t282.5 -114zM653 1243q-47 0 -76.5 30t-29.5 77q0 46 29.5 75t76.5 29q46 0 76.5 -29.5t30.5 -74.5q0 -47 -30.5 -77t-76.5 -30z" />
    <glyph glyph-name="Gcommaaccent" unicode="&#x122;" horiz-adv-x="1777" 
d="M1481 643l-584 2v152h754q13 -182 -37 -339.5t-148.5 -269t-245 -175.5t-319.5 -64q-222 0 -399.5 99.5t-277 276t-99.5 396.5q0 222 99.5 398.5t276.5 276t400 99.5q229 0 415 -122t245 -310l-158 -49q-44 143 -186.5 236t-315.5 93q-174 0 -312.5 -79t-216 -221
t-77.5 -322q0 -132 45.5 -247.5t125 -197.5t192.5 -129t243 -47q160 0 292 71t208.5 195.5t79.5 276.5zM903 -399q-39 0 -63.5 25.5t-24.5 66.5t25 66.5t65 25.5q47 0 77 -34t30 -89q0 -76 -36 -149.5t-93 -116.5l-56 45q33 31 54.5 76t21.5 84z" />
    <glyph glyph-name="gcommaaccent" unicode="&#x123;" horiz-adv-x="1363" 
d="M154 -154l149 37q34 -113 135 -183.5t228 -70.5q169 0 275 103.5t106 283.5v164q-68 -99 -173.5 -154t-234.5 -55q-232 0 -383.5 154.5t-151.5 390.5q0 241 151.5 398t383.5 157q131 0 236 -55t172 -154v172h155v-1018q0 -244 -147.5 -386t-382.5 -142q-187 0 -331 99.5
t-187 258.5zM655 113q172 0 284 114t112 289q0 181 -112 298.5t-284 117.5t-283.5 -117.5t-111.5 -298.5q0 -175 112.5 -289t282.5 -114zM670 1391q40 0 64 -26t24 -67t-24.5 -66.5t-65.5 -25.5q-46 0 -75.5 34t-29.5 89q0 76 36 149.5t93 116.5l56 -45q-34 -31 -56 -75.5
t-22 -83.5z" />
    <glyph glyph-name="Itilde" unicode="&#x128;" horiz-adv-x="573" 
d="M362 0h-172v1444h172v-1444zM14 1692l-86 61q28 61 87 98t132 37q47 0 89 -18t67 -39t58.5 -39t66.5 -18q41 0 75.5 25t55.5 67l86 -62q-28 -62 -88.5 -99.5t-138.5 -37.5q-51 0 -93 18t-65.5 39.5t-54 39.5t-60.5 18q-78 0 -131 -90z" />
    <glyph glyph-name="itilde" unicode="&#x129;" horiz-adv-x="518" 
d="M319 0h-157v1034h157v-1034zM-14 1290l-84 47q28 61 87.5 98.5t129.5 37.5q47 0 89 -18.5t68.5 -41t61 -41t68.5 -18.5q39 0 72.5 21.5t51.5 56.5l86 -48q-27 -61 -87.5 -99t-137.5 -38q-49 0 -92 18.5t-68 40t-58.5 40t-66.5 18.5q-37 0 -69 -20.5t-51 -53.5z" />
    <glyph glyph-name="Imacron" unicode="&#x12a;" horiz-adv-x="530" 
d="M350 0h-172v1444h172v-1444zM578 1694h-627v108h627v-108z" />
    <glyph glyph-name="imacron" unicode="&#x12b;" horiz-adv-x="456" 
d="M307 0h-157v1034h157v-1034zM541 1296h-625v109h625v-109z" />
    <glyph glyph-name="Iogonek" unicode="&#x12e;" horiz-adv-x="557" 
d="M197 0h-2v1444h170v-1444h-11q-221 -60 -221 -207q-1 -111 94 -178t248 -72v-114q-197 0 -322.5 95.5t-125.5 246.5q0 74 45 133.5t125 95.5z" />
    <glyph glyph-name="iogonek" unicode="&#x12f;" horiz-adv-x="491" 
d="M178 4v1030h156v-1034h-6q-228 -60 -228 -209q0 -111 94.5 -178t247.5 -72v-114q-196 0 -322 96.5t-124 245.5q0 78 48 139.5t134 95.5zM147 1331q0 46 30.5 75.5t76.5 29.5q47 0 76.5 -29.5t29.5 -75.5t-29.5 -76t-76.5 -30q-46 0 -76.5 30t-30.5 76z" />
    <glyph glyph-name="Idotaccent" unicode="&#x130;" horiz-adv-x="559" 
d="M365 0h-170v1444h170v-1444zM279 1655q-47 0 -77 28t-30 72q1 44 31 71t76 27q49 0 77.5 -26.5t28.5 -71.5t-28.5 -72.5t-77.5 -27.5z" />
    <glyph glyph-name="dotlessi" unicode="&#x131;" horiz-adv-x="471" 
d="M313 0h-155v1034h155v-1034z" />
    <glyph glyph-name="IJ" unicode="&#x132;" horiz-adv-x="1429" 
d="M365 0h-170v1444h170v-1444zM1069 432v1012h172v-1010q0 -213 -121.5 -344t-310.5 -131q-131 0 -262 41v147q122 -36 227 -36q131 0 213 86.5t82 234.5z" />
    <glyph glyph-name="ij" unicode="&#x133;" horiz-adv-x="944" 
d="M342 0h-156v1034h156v-1034zM633 -154v1188h155v-1204q0 -131 -74.5 -211t-195.5 -80q-95 0 -174 27v137q59 -20 133 -20q70 0 113 45.5t43 117.5zM158 1331q0 46 29.5 75.5t76.5 29.5q46 0 76.5 -29.5t30.5 -75.5t-30.5 -76t-76.5 -30q-47 0 -76.5 30t-29.5 76z
M604 1331q0 46 30 75.5t77 29.5q46 0 76 -29.5t30 -75.5t-30 -76t-76 -30q-47 0 -77 30t-30 76z" />
    <glyph glyph-name="Kcommaaccent" unicode="&#x136;" horiz-adv-x="1265" 
d="M365 682v-682h-170v1444h170v-633l612 633h223l-684 -699l705 -745h-224zM664 -399q-40 0 -64.5 25.5t-24.5 66.5t25 66.5t66 25.5q46 0 75 -34t29 -89q0 -76 -36 -148.5t-93 -115.5l-55 43q34 31 56 76t22 84z" />
    <glyph glyph-name="kcommaaccent" unicode="&#x137;" horiz-adv-x="1054" 
d="M317 489v-489h-155v1505h155v-889l451 418h211l-518 -481l538 -553h-211zM555 -383q-39 0 -63.5 26t-24.5 66q0 41 25 67.5t65 26.5q47 0 77 -35t30 -90q0 -75 -36 -148t-93 -116l-56 43q33 33 54.5 77.5t21.5 82.5z" />
    <glyph glyph-name="Lacute" unicode="&#x139;" horiz-adv-x="1183" 
d="M365 1444v-1292h739v-152h-909v1444h170zM381 1645h-186l211 225h194z" />
    <glyph glyph-name="lacute" unicode="&#x13a;" horiz-adv-x="714" 
d="M317 0h-155v1505h155v-1505zM342 1659h-188l211 225h196z" />
    <glyph glyph-name="Lcommaaccent" unicode="&#x13b;" horiz-adv-x="1183" 
d="M365 1444v-1292h739v-152h-909v1444h170zM651 -399q-40 0 -64 25.5t-24 66.5t24.5 66.5t65.5 25.5q46 0 75.5 -34t29.5 -89q0 -76 -36 -148.5t-93 -115.5l-56 43q34 31 56 76t22 84z" />
    <glyph glyph-name="lcommaaccent" unicode="&#x13c;" horiz-adv-x="497" 
d="M317 0h-155v1505h155v-1505zM240 -397q-39 0 -63.5 26t-24.5 66q0 41 24.5 66.5t65.5 25.5q46 0 75 -34t29 -89q0 -75 -36 -148t-93 -116l-55 43q34 33 56 77t22 83z" />
    <glyph glyph-name="Lcaron" unicode="&#x13d;" horiz-adv-x="1183" 
d="M365 1444v-1292h739v-152h-909v1444h170zM662 1315q-39 0 -64 26t-25 66q0 42 25 68t66 26q47 0 76.5 -34.5t29.5 -90.5q0 -74 -36.5 -147.5t-94.5 -116.5l-55 43q34 33 56 77.5t22 82.5z" />
    <glyph glyph-name="lcaron" unicode="&#x13e;" horiz-adv-x="700" 
d="M317 0h-155v1505h155v-1505zM590 1300q-38 -1 -63 25.5t-25 67.5q0 40 25 66t65 26q47 0 76.5 -34.5t29.5 -88.5q0 -76 -36 -149.5t-93 -116.5l-55 45q33 31 54.5 75.5t21.5 83.5z" />
    <glyph glyph-name="Lslash" unicode="&#x141;" horiz-adv-x="1048" 
d="M285 0v514l-226 -137v151l226 138v778h170v-674l573 348v-151l-573 -349v-466h739v-152h-909z" />
    <glyph glyph-name="lslash" unicode="&#x142;" horiz-adv-x="886" 
d="M520 918l318 204v-151l-318 -205v-766h-155v666l-316 -203v151l316 203v688h155v-587z" />
    <glyph glyph-name="Nacute" unicode="&#x143;" horiz-adv-x="1529" 
d="M365 0h-170v1444h231l739 -1235v1235h172v-1444h-231l-741 1235v-1235zM852 1645h-188l210 225h195z" />
    <glyph glyph-name="nacute" unicode="&#x144;" 
d="M672 1075q195 0 310.5 -128t115.5 -329v-618h-156v618q0 140 -76.5 227t-210.5 87q-138 0 -238 -94t-100 -234v-604h-155v1034h155v-145q54 86 150.5 136t204.5 50zM965 1526l-234 -283h-166l219 283h181z" />
    <glyph glyph-name="Ncommaaccent" unicode="&#x145;" horiz-adv-x="1529" 
d="M365 0h-170v1444h231l739 -1235v1235h172v-1444h-231l-741 1235v-1235zM758 -401q-38 -1 -62 24.5t-24 67.5q0 40 24.5 66t65.5 26q46 0 75 -34.5t29 -88.5q0 -76 -36 -149.5t-93 -116.5l-55 45q34 31 55 75.5t21 84.5z" />
    <glyph glyph-name="ncommaaccent" unicode="&#x146;" 
d="M672 1075q195 0 310.5 -128t115.5 -329v-618h-156v618q0 140 -76.5 227t-210.5 87q-138 0 -238 -94t-100 -234v-604h-155v1034h155v-145q54 86 150.5 136t204.5 50zM629 -403q-39 0 -63.5 26t-24.5 66q0 41 25 67.5t65 26.5q47 0 76.5 -34.5t29.5 -90.5q0 -75 -36 -148
t-93 -116l-55 43q33 33 54.5 77.5t21.5 82.5z" />
    <glyph glyph-name="Ncaron" unicode="&#x147;" horiz-adv-x="1529" 
d="M365 0h-170v1444h231l739 -1235v1235h172v-1444h-231l-741 1235v-1235zM434 1870h158l166 -154l168 154h157l-241 -242h-168z" />
    <glyph glyph-name="ncaron" unicode="&#x148;" 
d="M672 1075q195 0 310.5 -128t115.5 -329v-618h-156v618q0 140 -76.5 227t-210.5 87q-138 0 -238 -94t-100 -234v-604h-155v1034h155v-145q54 86 150.5 136t204.5 50zM336 1526h147l170 -193l166 193h152l-236 -283h-168z" />
    <glyph glyph-name="Omacron" unicode="&#x14c;" horiz-adv-x="1802" 
d="M125 721q0 224 98.5 400.5t275.5 275t402 98.5t402.5 -98.5t276.5 -275t99 -400.5t-99 -400t-276.5 -274t-402.5 -98t-402 98t-275.5 274t-98.5 400zM295 721q0 -270 171 -444.5t435 -176.5q265 0 435.5 175.5t170.5 445.5q0 272 -170.5 447t-435.5 175
q-264 0 -435 -175.5t-171 -446.5zM1214 1694h-624v108h624v-108z" />
    <glyph glyph-name="omacron" unicode="&#x14d;" horiz-adv-x="1310" 
d="M1208 516q0 -244 -155.5 -400.5t-397.5 -156.5q-243 0 -397 156t-154 401q0 246 154 402.5t397 156.5q242 0 397.5 -156.5t155.5 -402.5zM1051 516q0 181 -112 298.5t-284 117.5t-283.5 -117.5t-111.5 -298.5q0 -180 111.5 -298t283.5 -118t284 118t112 298zM969 1296
h-627v109h627v-109z" />
    <glyph glyph-name="Obreve" unicode="&#x14e;" horiz-adv-x="1802" 
d="M125 721q0 224 98.5 400.5t275.5 275t402 98.5t402.5 -98.5t276.5 -275t99 -400.5t-99 -400t-276.5 -274t-402.5 -98t-402 98t-275.5 274t-98.5 400zM295 721q0 -270 171 -444.5t435 -176.5q265 0 435.5 175.5t170.5 445.5q0 272 -170.5 447t-435.5 175
q-264 0 -435 -175.5t-171 -446.5zM1061 1870h121q0 -107 -79 -176.5t-202 -69.5q-122 0 -201 69.5t-79 176.5h122q0 -57 45 -94t113 -37q70 0 115 37t45 94z" />
    <glyph glyph-name="obreve" unicode="&#x14f;" horiz-adv-x="1310" 
d="M1208 516q0 -244 -155.5 -400.5t-397.5 -156.5q-243 0 -397 156t-154 401q0 246 154 402.5t397 156.5q242 0 397.5 -156.5t155.5 -402.5zM1051 516q0 181 -112 298.5t-284 117.5t-283.5 -117.5t-111.5 -298.5q0 -180 111.5 -298t283.5 -118t284 118t112 298zM801 1493
h125q0 -117 -76.5 -193.5t-194.5 -76.5q-117 0 -192.5 76.5t-77.5 193.5h125q0 -67 41 -110.5t104 -43.5q64 0 105 43t41 111z" />
    <glyph glyph-name="Ohungarumlaut" unicode="&#x150;" horiz-adv-x="1802" 
d="M125 721q0 224 98.5 400.5t275.5 275t402 98.5t402.5 -98.5t276.5 -275t99 -400.5t-99 -400t-276.5 -274t-402.5 -98t-402 98t-275.5 274t-98.5 400zM295 721q0 -270 171 -444.5t435 -176.5q265 0 435.5 175.5t170.5 445.5q0 272 -170.5 447t-435.5 175
q-264 0 -435 -175.5t-171 -446.5zM1004 1870l-213 -242h-142l189 242h166zM1341 1870l-223 -242h-139l199 242h163z" />
    <glyph glyph-name="ohungarumlaut" unicode="&#x151;" horiz-adv-x="1308" 
d="M1206 516q0 -245 -155 -401t-398 -156t-397 156t-154 401q0 246 154 402.5t397 156.5t398 -156.5t155 -402.5zM1049 516q0 181 -112 298.5t-284 117.5t-283.5 -117.5t-111.5 -298.5q0 -180 111.5 -298t283.5 -118t284 118t112 298zM815 1518l-231 -275h-150l205 273z
M1151 1516l-238 -273h-151l219 273h170z" />
    <glyph glyph-name="OE" unicode="&#x152;" horiz-adv-x="2189" 
d="M125 721q0 221 97.5 394.5t270 268.5t390.5 95q138 0 254 -35h911v-152h-750v-487h668v-143h-668v-510h770v-152h-931q-123 -35 -254 -35q-218 0 -390.5 95.5t-270 268t-97.5 392.5zM1128 154v1134q-92 37 -237 37q-128 0 -238 -44.5t-189 -123t-124 -191.5t-45 -245
q0 -264 164.5 -433t417.5 -169q151 0 251 35z" />
    <glyph glyph-name="oe" unicode="&#x153;" horiz-adv-x="2248" 
d="M1602 100q114 0 215 59t141 148l137 -51q-50 -129 -186.5 -213t-298.5 -84q-156 0 -281 69.5t-196 192.5q-70 -123 -195 -192.5t-283 -69.5q-243 0 -397 156t-154 401q0 246 154 402.5t397 156.5q155 0 278.5 -68t194.5 -188q71 120 195 188t279 68q236 0 389 -155
t153 -394q0 -38 -2 -61l-928 2q17 -163 125 -265t263 -102zM1051 516q0 181 -112 298.5t-284 117.5t-283.5 -117.5t-111.5 -298.5q0 -180 111.5 -298t283.5 -118t284 118t112 298zM1217 602l763 -2q-22 149 -127 240.5t-258 91.5q-150 0 -253 -91.5t-125 -238.5z" />
    <glyph glyph-name="Racute" unicode="&#x154;" horiz-adv-x="1495" 
d="M825 565h-460v-565h-170v1444h636q229 0 376 -125t147 -320q0 -147 -100 -261t-257 -148l369 -590h-199zM819 1292h-454v-575h454q160 0 262.5 79t102.5 203q0 135 -101.5 214t-263.5 79zM829 1645h-188l211 225h197z" />
    <glyph glyph-name="racute" unicode="&#x155;" horiz-adv-x="835" 
d="M600 1071q63 0 139 -29v-143q-70 33 -153 33q-121 0 -195 -98t-74 -254v-580h-155v1034h151v-143q47 86 120 133t167 47zM766 1526l-234 -283h-165l219 283h180z" />
    <glyph glyph-name="Rcommaaccent" unicode="&#x156;" horiz-adv-x="1495" 
d="M825 565h-460v-565h-170v1444h636q229 0 376 -125t147 -320q0 -147 -100 -261t-257 -148l369 -590h-199zM819 1292h-454v-575h454q160 0 262.5 79t102.5 203q0 135 -101.5 214t-263.5 79zM754 -401q-39 0 -63.5 25.5t-24.5 66.5t25 66.5t65 25.5q47 0 76.5 -34.5
t29.5 -88.5q0 -76 -36 -149.5t-93 -116.5l-55 45q33 31 54.5 76t21.5 84z" />
    <glyph glyph-name="rcommaaccent" unicode="&#x157;" horiz-adv-x="796" 
d="M600 1071q63 0 139 -29v-143q-70 33 -153 33q-121 0 -195 -98t-74 -254v-580h-155v1034h151v-143q47 86 120 133t167 47zM240 -397q-40 0 -64 25.5t-24 66.5t24.5 66.5t65.5 25.5q46 0 75 -34.5t29 -88.5q0 -76 -36 -149.5t-93 -116.5l-55 45q34 31 56 76t22 84z" />
    <glyph glyph-name="Rcaron" unicode="&#x158;" horiz-adv-x="1495" 
d="M825 565h-460v-565h-170v1444h636q229 0 376 -125t147 -320q0 -147 -100 -261t-257 -148l369 -590h-199zM819 1292h-454v-575h454q160 0 262.5 79t102.5 203q0 135 -101.5 214t-263.5 79zM399 1870h158l166 -154l168 154h158l-240 -242h-170z" />
    <glyph glyph-name="rcaron" unicode="&#x159;" horiz-adv-x="806" 
d="M600 1071q63 0 139 -29v-143q-70 33 -153 33q-121 0 -195 -98t-74 -254v-580h-155v1034h151v-143q47 86 120 133t167 47zM133 1526h148l170 -193l165 193h152l-236 -283h-167z" />
    <glyph glyph-name="Sacute" unicode="&#x15a;" horiz-adv-x="1439" 
d="M745 -51q-265 0 -436.5 146t-171.5 372h170q0 -160 124.5 -263.5t318.5 -103.5q174 0 278.5 79.5t104.5 197.5q0 63 -33.5 109t-89.5 73.5t-129 47.5t-153.5 36t-161.5 34t-154 47t-129 69t-89.5 105.5t-33.5 152.5q0 194 151.5 319t393.5 125q163 0 293 -62.5t203 -174
t73 -252.5h-166q1 148 -112.5 242.5t-290.5 94.5q-168 0 -271.5 -76t-103.5 -190q0 -61 33.5 -106t89.5 -71.5t129 -46.5t153.5 -36t161.5 -34.5t154 -48t129 -70.5t89.5 -108t33.5 -155q0 -197 -153.5 -324.5t-404.5 -127.5zM801 1645h-187l211 225h195z" />
    <glyph glyph-name="sacute" unicode="&#x15b;" horiz-adv-x="1107" 
d="M569 -41q-199 0 -328.5 110t-127.5 277h151q0 -107 86.5 -176.5t218.5 -69.5q119 0 197 52.5t78 130.5q0 46 -31 78.5t-81 48.5t-114 31t-130.5 25.5t-130 32.5t-113.5 51.5t-80.5 84t-30.5 127.5q0 134 114.5 223.5t282.5 89.5q191 0 317 -99t126 -251l-154 2
q0 89 -82.5 147t-210.5 58q-101 0 -171 -50t-70 -124q0 -51 39 -85t102 -52t138.5 -32t151 -33.5t138.5 -48t102 -83t39 -131.5q0 -143 -120.5 -238.5t-305.5 -95.5zM844 1526l-234 -283h-166l220 283h180z" />
    <glyph glyph-name="Scircumflex" unicode="&#x15c;" horiz-adv-x="1439" 
d="M745 -51q-265 0 -436.5 146t-171.5 372h170q0 -160 124.5 -263.5t318.5 -103.5q174 0 278.5 79.5t104.5 197.5q0 63 -33.5 109t-89.5 73.5t-129 47.5t-153.5 36t-161.5 34t-154 47t-129 69t-89.5 105.5t-33.5 152.5q0 194 151.5 319t393.5 125q163 0 293 -62.5t203 -174
t73 -252.5h-166q1 148 -112.5 242.5t-290.5 94.5q-168 0 -271.5 -76t-103.5 -190q0 -61 33.5 -106t89.5 -71.5t129 -46.5t153.5 -36t161.5 -34.5t154 -48t129 -70.5t89.5 -108t33.5 -155q0 -197 -153.5 -324.5t-404.5 -127.5zM1042 1628h-157l-168 154l-166 -154h-158
l240 242h170z" />
    <glyph glyph-name="scircumflex" unicode="&#x15d;" horiz-adv-x="1107" 
d="M569 -41q-199 0 -328.5 110t-127.5 277h151q0 -107 86.5 -176.5t218.5 -69.5q119 0 197 52.5t78 130.5q0 46 -31 78.5t-81 48.5t-114 31t-130.5 25.5t-130 32.5t-113.5 51.5t-80.5 84t-30.5 127.5q0 134 114.5 223.5t282.5 89.5q191 0 317 -99t126 -251l-154 2
q0 89 -82.5 147t-210.5 58q-101 0 -171 -50t-70 -124q0 -51 39 -85t102 -52t138.5 -32t151 -33.5t138.5 -48t102 -83t39 -131.5q0 -143 -120.5 -238.5t-305.5 -95.5zM848 1243h-152l-166 193l-168 -193h-149l233 283h166z" />
    <glyph glyph-name="Scedilla" unicode="&#x15e;" horiz-adv-x="1439" 
d="M715 -219h-101l21 176q-222 29 -360 169.5t-138 340.5h170q0 -160 124.5 -263.5t318.5 -103.5q174 0 278.5 79.5t104.5 197.5q0 63 -33.5 109t-89.5 73.5t-129 47.5t-153.5 36t-161.5 34t-154 47t-129 69t-89.5 105.5t-33.5 152.5q0 194 151.5 319t393.5 125
q163 0 293 -62.5t203 -174t73 -252.5h-166q1 148 -112.5 242.5t-290.5 94.5q-168 0 -271.5 -76t-103.5 -190q0 -61 33.5 -106t89.5 -71.5t129 -46.5t153.5 -36t161.5 -34.5t154 -48t129 -70.5t89.5 -108t33.5 -155q0 -196 -151.5 -323.5t-401.5 -128.5l-11 -84
q104 0 168 -59t64 -156q0 -91 -62.5 -147t-163.5 -56q-85 0 -147 47t-76 121l105 23q11 -39 43 -64t71 -25q47 0 78 30.5t31 76.5q0 56 -37.5 90.5t-97.5 34.5z" />
    <glyph glyph-name="scedilla" unicode="&#x15f;" horiz-adv-x="1107" 
d="M571 -219h-100l23 182q-170 22 -276 127t-105 256h151q0 -107 86.5 -176.5t218.5 -69.5q119 0 197 52.5t78 130.5q0 46 -31 78.5t-81 48.5t-114 31t-130.5 25.5t-130 32.5t-113.5 51.5t-80.5 84t-30.5 127.5q0 134 114.5 223.5t282.5 89.5q191 0 317 -99t126 -251l-154 2
q0 89 -82.5 147t-210.5 58q-101 0 -171 -50t-70 -124q0 -51 39 -85t102 -52t138.5 -32t151 -33.5t138.5 -48t102 -83t39 -131.5q0 -135 -108 -228.5t-277 -103.5l-14 -96q105 0 168 -59t63 -156q0 -91 -62 -147t-163 -56q-84 0 -145.5 47t-75.5 121l102 23
q12 -38 44.5 -63.5t70.5 -25.5q47 0 79 30.5t32 76.5q0 55 -39 90t-99 35z" />
    <glyph glyph-name="Scaron" unicode="&#x160;" horiz-adv-x="1439" 
d="M745 -51q-265 0 -436.5 146t-171.5 372h170q0 -160 124.5 -263.5t318.5 -103.5q174 0 278.5 79.5t104.5 197.5q0 63 -33.5 109t-89.5 73.5t-129 47.5t-153.5 36t-161.5 34t-154 47t-129 69t-89.5 105.5t-33.5 152.5q0 194 151.5 319t393.5 125q163 0 293 -62.5t203 -174
t73 -252.5h-166q1 148 -112.5 242.5t-290.5 94.5q-168 0 -271.5 -76t-103.5 -190q0 -61 33.5 -106t89.5 -71.5t129 -46.5t153.5 -36t161.5 -34.5t154 -48t129 -70.5t89.5 -108t33.5 -155q0 -197 -153.5 -324.5t-404.5 -127.5zM383 1870h160l166 -154l168 154h155l-239 -242
h-168z" />
    <glyph glyph-name="scaron" unicode="&#x161;" horiz-adv-x="1107" 
d="M569 -41q-199 0 -328.5 110t-127.5 277h151q0 -107 86.5 -176.5t218.5 -69.5q119 0 197 52.5t78 130.5q0 46 -31 78.5t-81 48.5t-114 31t-130.5 25.5t-130 32.5t-113.5 51.5t-80.5 84t-30.5 127.5q0 134 114.5 223.5t282.5 89.5q191 0 317 -99t126 -251l-154 2
q0 89 -82.5 147t-210.5 58q-101 0 -171 -50t-70 -124q0 -51 39 -85t102 -52t138.5 -32t151 -33.5t138.5 -48t102 -83t39 -131.5q0 -143 -120.5 -238.5t-305.5 -95.5zM211 1526h147l170 -193l166 193h152l-236 -283h-168z" />
    <glyph glyph-name="Tcommaaccent" unicode="&#x162;" horiz-adv-x="1222" 
d="M696 1292v-1292h-170v1292h-483v152h1137v-152h-484zM602 -401q-40 0 -64 25.5t-24 66.5q0 40 25 66t65 26q47 0 77 -34.5t30 -88.5q0 -76 -36 -149.5t-93 -116.5l-56 45q33 31 54.5 76t21.5 84z" />
    <glyph glyph-name="tcommaaccent" unicode="&#x163;" horiz-adv-x="794" 
d="M250 256v649h-170v129h176l23 242h127v-242h268v-129h-268v-643q0 -76 43 -122.5t116 -47.5q57 0 125 21v-129q-84 -25 -164 -25q-127 0 -201.5 81.5t-74.5 215.5zM479 -403q-39 0 -63.5 26t-24.5 66q0 41 25 67.5t65 26.5q47 0 77 -35t30 -90q0 -75 -36 -148t-93 -116
l-56 43q33 33 54.5 77.5t21.5 82.5z" />
    <glyph glyph-name="Tcaron" unicode="&#x164;" horiz-adv-x="1222" 
d="M696 1292v-1292h-170v1292h-483v152h1137v-152h-484zM287 1870h157l166 -154l168 154h158l-240 -242h-170z" />
    <glyph glyph-name="tcaron" unicode="&#x165;" horiz-adv-x="794" 
d="M250 256v649h-170v129h176l23 242h127v-242h268v-129h-268v-643q0 -76 43 -122.5t116 -47.5q57 0 125 21v-129q-84 -25 -164 -25q-127 0 -201.5 81.5t-74.5 215.5zM612 1370q-39 0 -63.5 26t-24.5 66q0 42 24.5 68t65.5 26q47 0 77 -34.5t30 -89.5q0 -74 -37 -148
t-94 -117l-55 43q34 32 55.5 77t21.5 83z" />
    <glyph glyph-name="Utilde" unicode="&#x168;" horiz-adv-x="1533" 
d="M1182 586v858h170v-858q0 -280 -164 -458.5t-420 -178.5q-170 0 -303.5 81t-208 226.5t-74.5 329.5v858h170v-858q0 -132 50.5 -242.5t146.5 -177t219 -66.5q185 0 299.5 135.5t114.5 350.5zM506 1692l-84 61q27 61 85.5 98t131.5 37q47 0 89 -18t67 -39t58.5 -39
t66.5 -18q41 0 75.5 25t55.5 67l86 -62q-28 -62 -89 -99.5t-139 -37.5q-51 0 -93 18t-65 39.5t-53.5 39.5t-60.5 18q-78 0 -131 -90z" />
    <glyph glyph-name="utilde" unicode="&#x169;" 
d="M567 -41q-195 0 -310.5 128t-115.5 329v618h156v-618q0 -140 77 -228t212 -88q137 0 236.5 94.5t99.5 233.5v606h155v-1034h-155v145q-52 -85 -149.5 -135.5t-205.5 -50.5zM358 1290l-84 45q28 60 88 97.5t130 37.5q46 0 88 -18.5t68 -40.5t61 -40.5t69 -18.5q39 0 73 22
t52 56l86 -46q-27 -62 -87.5 -100.5t-137.5 -38.5q-41 0 -76 12.5t-59.5 29.5t-47.5 34.5t-49 30t-53 12.5q-37 0 -69.5 -20.5t-51.5 -53.5z" />
    <glyph glyph-name="Umacron" unicode="&#x16a;" horiz-adv-x="1533" 
d="M1182 586v858h170v-858q0 -280 -164 -458.5t-420 -178.5q-170 0 -303.5 81t-208 226.5t-74.5 329.5v858h170v-858q0 -132 50.5 -242.5t146.5 -177t219 -66.5q185 0 299.5 135.5t114.5 350.5zM1081 1694h-626v108h626v-108z" />
    <glyph glyph-name="umacron" unicode="&#x16b;" 
d="M567 -41q-195 0 -310.5 128t-115.5 329v618h156v-618q0 -140 77 -228t212 -88q137 0 236.5 94.5t99.5 233.5v606h155v-1034h-155v145q-52 -85 -149.5 -135.5t-205.5 -50.5zM922 1294h-625v109h625v-109z" />
    <glyph glyph-name="Ubreve" unicode="&#x16c;" horiz-adv-x="1533" 
d="M1182 586v858h170v-858q0 -280 -164 -458.5t-420 -178.5q-170 0 -303.5 81t-208 226.5t-74.5 329.5v858h170v-858q0 -132 50.5 -242.5t146.5 -177t219 -66.5q185 0 299.5 135.5t114.5 350.5zM928 1870h121q0 -107 -79.5 -176.5t-201.5 -69.5q-123 0 -202 69.5t-81 176.5
h123q0 -57 45.5 -94t114.5 -37t114.5 37t45.5 94z" />
    <glyph glyph-name="ubreve" unicode="&#x16d;" 
d="M567 -41q-195 0 -310.5 128t-115.5 329v618h156v-618q0 -140 77 -228t212 -88q137 0 236.5 94.5t99.5 233.5v606h155v-1034h-155v145q-52 -85 -149.5 -135.5t-205.5 -50.5zM754 1483h125q0 -119 -76.5 -195t-194.5 -76q-117 0 -192.5 76t-77.5 195h125q0 -67 41 -110.5
t104 -43.5q65 0 106 43.5t40 110.5z" />
    <glyph glyph-name="Uring" unicode="&#x16e;" horiz-adv-x="1533" 
d="M1182 586v858h170v-858q0 -280 -164 -458.5t-420 -178.5q-170 0 -303.5 81t-208 226.5t-74.5 329.5v858h170v-858q0 -132 50.5 -242.5t146.5 -177t219 -66.5q185 0 299.5 135.5t114.5 350.5zM768 1563q-101 0 -166 62t-67 159q2 98 67 160.5t166 62.5t165 -62.5
t64 -160.5q0 -97 -64 -159t-165 -62zM768 1911q-57 0 -92.5 -35t-34.5 -90q0 -56 35.5 -92.5t91.5 -36.5q55 0 91 36.5t36 92.5q0 55 -35.5 90t-91.5 35z" />
    <glyph glyph-name="uring" unicode="&#x16f;" 
d="M567 -41q-195 0 -310.5 128t-115.5 329v618h156v-618q0 -140 77 -228t212 -88q137 0 236.5 94.5t99.5 233.5v606h155v-1034h-155v145q-52 -85 -149.5 -135.5t-205.5 -50.5zM608 1135q-107 0 -176.5 66t-69.5 169q0 104 69 170t177 66q107 0 175.5 -66t68.5 -170
q0 -103 -68.5 -169t-175.5 -66zM608 1509q-62 0 -101 -39t-38 -100q0 -62 39 -101.5t100 -39.5q62 0 102 40t40 101t-40 100t-102 39z" />
    <glyph glyph-name="Uhungarumlaut" unicode="&#x170;" horiz-adv-x="1533" 
d="M1182 586v858h170v-858q0 -280 -164 -458.5t-420 -178.5q-170 0 -303.5 81t-208 226.5t-74.5 329.5v858h170v-858q0 -132 50.5 -242.5t146.5 -177t219 -66.5q185 0 299.5 135.5t114.5 350.5zM870 1882l-213 -242h-143l191 242h165zM1208 1882l-223 -242h-141l198 242h166
z" />
    <glyph glyph-name="uhungarumlaut" unicode="&#x171;" horiz-adv-x="1175" 
d="M567 -41q-195 0 -310.5 128t-115.5 329v618h156v-618q0 -140 77 -228t212 -88q137 0 236.5 94.5t99.5 233.5v606h155v-1034h-155v145q-52 -85 -149.5 -135.5t-205.5 -50.5zM737 1516l-229 -275h-152l207 275h174zM1075 1516l-237 -275h-152l219 275h170z" />
    <glyph glyph-name="Uogonek" unicode="&#x172;" horiz-adv-x="1533" 
d="M752 -51q-251 6 -410.5 184t-159.5 453v858h170v-858q0 -132 50.5 -242.5t146.5 -177t219 -66.5q185 0 299.5 135.5t114.5 350.5v858h170v-858q0 -243 -127 -413t-334 -212q-123 -61 -123 -170q0 -111 95.5 -178t248.5 -72v-114q-196 0 -322 96.5t-126 245.5
q0 105 88 180z" />
    <glyph glyph-name="uogonek" unicode="&#x173;" horiz-adv-x="1353" 
d="M922 8v137q-52 -85 -149.5 -135.5t-205.5 -50.5q-195 0 -310.5 128t-115.5 329v618h156v-618q0 -140 77 -228t212 -88q137 0 236.5 94.5t99.5 233.5v606h155v-1034h-18q-211 -61 -211 -205q0 -109 95.5 -176t248.5 -72v-114q-197 0 -323 96t-126 246q0 76 47 137t132 96z
" />
    <glyph glyph-name="Wcircumflex" unicode="&#x174;" horiz-adv-x="2203" 
d="M645 115l336 1329h250l328 -1329l372 1329h176l-409 -1444h-275l-321 1266l-320 -1266h-276l-412 1444h178zM1425 1628h-157l-168 154l-166 -154h-158l240 242h168z" />
    <glyph glyph-name="wcircumflex" unicode="&#x175;" horiz-adv-x="1800" 
d="M1147 0l-248 852l-248 -852h-213l-350 1034h164l295 -880l260 880h182l268 -880l291 880h164l-352 -1034h-213zM1219 1243h-150l-168 193l-168 -193h-147l231 283h168z" />
    <glyph glyph-name="Ycircumflex" unicode="&#x176;" horiz-adv-x="1325" 
d="M750 537v-537h-172v537l-519 907h189l416 -744l409 744h193zM985 1628h-158l-165 154l-166 -154h-160l242 242h167z" />
    <glyph glyph-name="ycircumflex" unicode="&#x177;" horiz-adv-x="1165" 
d="M131 -426v137q82 -28 137 -28q32 0 58.5 8.5t49 28.5t38.5 38t34 54t28 57.5t28.5 67t27.5 65.5l-464 1032h172l368 -839l324 839h166l-412 -1048q-23 -57 -35.5 -87.5t-35 -80t-39 -77t-41.5 -64.5t-49 -57t-54.5 -40t-65.5 -28.5t-75 -8.5q-79 0 -160 31zM903 1243
h-151l-166 193l-170 -193h-148l232 283h168z" />
    <glyph glyph-name="Ydieresis" unicode="&#x178;" horiz-adv-x="1325" 
d="M750 537v-537h-172v537l-519 907h189l416 -744l409 744h193zM438 1655q-46 0 -76 29t-30 75t30 75.5t76 29.5t76.5 -29.5t30.5 -75.5q0 -45 -30.5 -74.5t-76.5 -29.5zM887 1655q-47 0 -77 29t-30 75t30 75.5t77 29.5q46 0 76 -29.5t30 -75.5t-30 -75t-76 -29z" />
    <glyph glyph-name="Zacute" unicode="&#x179;" horiz-adv-x="1329" 
d="M1233 141v-141h-1139v113l887 1187h-866v144h1097v-113l-884 -1190h905zM748 1645h-189l211 225h197z" />
    <glyph glyph-name="zacute" unicode="&#x17a;" horiz-adv-x="1138" 
d="M1034 0h-930v102l674 789h-653v143h889v-102l-676 -791h696v-141zM868 1526l-231 -283h-166l219 283h178z" />
    <glyph glyph-name="Zdotaccent" unicode="&#x17b;" horiz-adv-x="1329" 
d="M1233 141v-141h-1139v113l887 1187h-866v144h1097v-113l-884 -1190h905zM664 1655q-47 0 -77 28t-30 72q1 44 31 71t76 27q49 0 77.5 -26.5t28.5 -71.5t-28.5 -72.5t-77.5 -27.5z" />
    <glyph glyph-name="zdotaccent" unicode="&#x17c;" horiz-adv-x="1138" 
d="M1034 0h-930v102l674 789h-653v143h889v-102l-676 -791h696v-141zM569 1251q-46 0 -76 30t-30 77q0 46 30 75t76 29q47 0 77 -29t30 -75q0 -47 -30 -77t-77 -30z" />
    <glyph glyph-name="Zcaron" unicode="&#x17d;" horiz-adv-x="1329" 
d="M1233 141v-141h-1139v113l887 1187h-866v144h1097v-113l-884 -1190h905zM330 1870h157l166 -154l168 154h158l-240 -242h-170z" />
    <glyph glyph-name="zcaron" unicode="&#x17e;" horiz-adv-x="1138" 
d="M1034 0h-930v102l674 789h-653v143h889v-102l-676 -791h696v-141zM252 1526h149l168 -193l168 193h150l-236 -283h-166z" />
    <glyph glyph-name="Aacutering" unicode="&#x1fa;" horiz-adv-x="1441" 
d="M242 0h-183l539 1444h246l538 -1444h-182l-123 340h-717zM723 1292l-311 -819h620zM719 1487q-83 0 -137 51t-56 131q2 80 55 131t136 51q84 0 138 -51.5t54 -130.5q0 -80 -53.5 -131t-136.5 -51zM719 1755q-37 0 -61.5 -24t-24.5 -62t24.5 -63t61.5 -25q38 0 63 25.5
t25 62.5q0 38 -25 62t-63 24zM809 1886h-176l164 178h184z" />
    <glyph glyph-name="aacutering" unicode="&#x1fb;" horiz-adv-x="1370" 
d="M1053 850v184h155v-1034h-155v182q-67 -104 -175.5 -163.5t-240.5 -59.5q-152 0 -274 71.5t-190.5 199t-68.5 286.5q0 243 150.5 401t382.5 158q132 0 240.5 -59.5t175.5 -165.5zM655 100q171 0 283.5 118t112.5 298q0 181 -112.5 298.5t-283.5 117.5
q-172 0 -283.5 -117.5t-111.5 -298.5q0 -180 111.5 -298t283.5 -118zM670 1174q-83 0 -138 51.5t-55 130.5t53.5 129.5t137.5 50.5q83 0 136.5 -51t55.5 -129q0 -80 -53.5 -131t-136.5 -51zM670 1442q-38 0 -63 -24t-25 -62t25 -63t63 -25t62.5 25t23.5 63q0 37 -24 61.5
t-62 24.5zM768 1628h-188l211 225h196z" />
    <glyph glyph-name="AEacute" unicode="&#x1fc;" horiz-adv-x="1923" 
d="M1702 662h-617v-510h717v-152h-872v293h-527l-153 -293h-191l748 1444h977v-154h-697v-485h615v-143zM930 438v881l-457 -881h457zM1202 1624h-188l211 225h196z" />
    <glyph glyph-name="aeacute" unicode="&#x1fd;" horiz-adv-x="2217" 
d="M2114 530q0 -14 -5 -92h-913q25 -153 132.5 -245.5t264.5 -92.5q112 0 196.5 50.5t135.5 146.5l135 -55q-47 -123 -178.5 -203t-288.5 -80q-140 0 -256 65t-170 173v-197h-125v172q-70 -100 -177 -156.5t-236 -56.5q-228 0 -376.5 157.5t-148.5 399.5q0 243 148 401
t377 158q129 0 236.5 -57.5t176.5 -157.5v174h125v-188q57 108 160.5 168.5t243.5 60.5q236 0 389.5 -154.5t153.5 -390.5zM260 516q0 -184 111.5 -304t283.5 -120q170 0 283 118t113 306q0 186 -112 306t-284 120q-173 0 -284 -120t-111 -306zM1190 571h766
q-6 157 -115 259t-274 102q-155 0 -259 -101.5t-118 -259.5zM1432 1536l-232 -283h-166l219 283h179z" />
    <glyph glyph-name="Oslashacute" unicode="&#x1fe;" horiz-adv-x="1761" 
d="M1182 1436l164 325l161 2l-196 -393q153 -103 240 -272t87 -377q0 -220 -97 -396.5t-270 -276t-390 -99.5q-134 0 -265 43l-137 -279h-162l170 338q-169 98 -265.5 274t-96.5 396q0 166 57 310t156.5 246t240 160t302.5 58q165 0 301 -59zM295 721q0 -169 70.5 -306
t193.5 -218l555 1099q-109 47 -233 47q-168 0 -302 -80t-209 -222t-75 -320zM1466 721q0 159 -60.5 289t-168.5 213l-549 -1092q91 -31 193 -31q168 0 301.5 79.5t208.5 221.5t75 320zM942 1628h-188l213 225h194z" />
    <glyph glyph-name="oslashacute" unicode="&#x1ff;" horiz-adv-x="1320" 
d="M872 1038l95 191h149l-127 -252q107 -73 167.5 -193.5t60.5 -267.5q0 -244 -156 -400.5t-399 -156.5q-86 0 -173 23l-71 -146h-150l99 197q-123 71 -193 197.5t-70 285.5q0 246 156.5 402.5t401.5 156.5q112 0 210 -37zM426 152l387 772q-73 28 -151 28
q-183 0 -299.5 -122.5t-116.5 -313.5q0 -117 47.5 -211.5t132.5 -152.5zM1073 516q0 214 -145 340l-381 -760q49 -14 115 -14q180 0 295.5 122.5t115.5 311.5zM743 1243h-163l208 250h179z" />
    <glyph glyph-name="Scommaaccent" unicode="&#x218;" horiz-adv-x="1439" 
d="M745 -51q-265 0 -436.5 146t-171.5 372h170q0 -160 124.5 -263.5t318.5 -103.5q174 0 278.5 79.5t104.5 197.5q0 63 -33.5 109t-89.5 73.5t-129 47.5t-153.5 36t-161.5 34t-154 47t-129 69t-89.5 105.5t-33.5 152.5q0 194 151.5 319t393.5 125q163 0 293 -62.5t203 -174
t73 -252.5h-166q1 148 -112.5 242.5t-290.5 94.5q-168 0 -271.5 -76t-103.5 -190q0 -61 33.5 -106t89.5 -71.5t129 -46.5t153.5 -36t161.5 -34.5t154 -48t129 -70.5t89.5 -108t33.5 -155q0 -197 -153.5 -324.5t-404.5 -127.5zM711 -403q-38 0 -62 26t-24 66q0 42 24.5 68
t65.5 26q46 0 75 -35t29 -90q0 -75 -36 -148t-93 -116l-55 43q34 32 55 77t21 83z" />
    <glyph glyph-name="scommaaccent" unicode="&#x219;" horiz-adv-x="1107" 
d="M569 -41q-199 0 -328.5 110t-127.5 277h151q0 -107 86.5 -176.5t218.5 -69.5q119 0 197 52.5t78 130.5q0 46 -31 78.5t-81 48.5t-114 31t-130.5 25.5t-130 32.5t-113.5 51.5t-80.5 84t-30.5 127.5q0 134 114.5 223.5t282.5 89.5q191 0 317 -99t126 -251l-154 2
q0 89 -82.5 147t-210.5 58q-101 0 -171 -50t-70 -124q0 -51 39 -85t102 -52t138.5 -32t151 -33.5t138.5 -48t102 -83t39 -131.5q0 -143 -120.5 -238.5t-305.5 -95.5zM526 -403q-39 0 -63.5 26t-24.5 66q0 42 24.5 68t65.5 26q46 0 75.5 -35t29.5 -90q0 -75 -36 -148
t-93 -116l-55 43q34 32 55.5 77t21.5 83z" />
    <glyph glyph-name="circumflex" unicode="&#x2c6;" horiz-adv-x="841" 
d="M588 1253l-166 193l-170 -193h-148l232 285h168l235 -285h-151z" />
    <glyph glyph-name="caron" unicode="&#x2c7;" horiz-adv-x="841" 
d="M104 1536h148l170 -193l166 193l151 2l-235 -285h-168z" />
    <glyph glyph-name="breve" unicode="&#x2d8;" horiz-adv-x="747" 
d="M520 1505h123q1 -118 -75 -195t-193 -77q-118 0 -194.5 76.5t-76.5 195.5h123q2 -68 43 -111.5t105 -43.5q63 0 104 44t41 111z" />
    <glyph glyph-name="dotaccent" unicode="&#x2d9;" horiz-adv-x="421" 
d="M211 1147q-47 0 -77 30t-30 76t30 75.5t77 29.5q46 0 76 -29.5t30 -75.5t-30 -76t-76 -30z" />
    <glyph glyph-name="ring" unicode="&#x2da;" horiz-adv-x="696" 
d="M350 1106q-108 0 -177 66t-69 169q0 104 68.5 170t177.5 66q107 0 174.5 -66t67.5 -170q0 -103 -67.5 -169t-174.5 -66zM350 1481q-63 0 -102.5 -39.5t-38.5 -100.5q0 -62 39 -100.5t102 -38.5q60 0 99.5 39t39.5 100t-39.5 100.5t-99.5 39.5z" />
    <glyph glyph-name="ogonek" unicode="&#x2db;" horiz-adv-x="655" 
d="M356 25l82 -25q-229 -61 -229 -209q0 -111 94.5 -178t247.5 -72v-114q-196 0 -321.5 96t-125.5 246q0 93 67.5 161.5t184.5 94.5z" />
    <glyph glyph-name="tilde" unicode="&#x2dc;" horiz-adv-x="923" 
d="M188 1233l-84 45q28 61 88 99t130 38q46 0 88 -19t68 -41.5t61 -41.5t69 -19q39 0 73 22t52 56l86 -45q-27 -62 -87.5 -100.5t-137.5 -38.5q-41 0 -76 12.5t-59.5 30t-47.5 34.5t-49 29.5t-53 12.5q-37 0 -69.5 -20.5t-51.5 -53.5z" />
    <glyph glyph-name="hungarumlaut" unicode="&#x2dd;" horiz-adv-x="925" 
d="M485 1528l-231 -275h-150l207 275h174zM821 1528l-237 -275h-150l217 275h170z" />
    <glyph glyph-name="Wgrave" unicode="&#x1e80;" horiz-adv-x="2203" 
d="M645 115l336 1329h250l328 -1329l372 1329h176l-409 -1444h-275l-321 1266l-320 -1266h-276l-412 1444h178zM778 1870h197l211 -225h-189z" />
    <glyph glyph-name="wgrave" unicode="&#x1e81;" horiz-adv-x="1800" 
d="M1147 0l-248 852l-248 -852h-213l-350 1034h164l295 -880l260 880h182l268 -880l291 880h164l-352 -1034h-213zM774 1526l219 -283h-166l-233 283h180z" />
    <glyph glyph-name="Wacute" unicode="&#x1e82;" horiz-adv-x="2203" 
d="M645 115l336 1329h250l328 -1329l372 1329h176l-409 -1444h-275l-321 1266l-320 -1266h-276l-412 1444h178zM1184 1645h-189l213 225h195z" />
    <glyph glyph-name="wacute" unicode="&#x1e83;" horiz-adv-x="1800" 
d="M1147 0l-248 852l-248 -852h-213l-350 1034h164l295 -880l260 880h182l268 -880l291 880h164l-352 -1034h-213zM1200 1526l-233 -283h-166l219 283h180z" />
    <glyph glyph-name="Wdieresis" unicode="&#x1e84;" horiz-adv-x="2203" 
d="M645 115l336 1329h250l328 -1329l372 1329h176l-409 -1444h-275l-321 1266l-320 -1266h-276l-412 1444h178zM874 1655q-47 0 -76.5 29t-29.5 75t29.5 75.5t76.5 29.5q46 0 76.5 -29.5t30.5 -75.5q0 -45 -30.5 -74.5t-76.5 -29.5zM1331 1655q-46 0 -76 29t-30 75t30 75.5
t76 29.5t76.5 -29.5t30.5 -75.5q0 -45 -30.5 -74.5t-76.5 -29.5z" />
    <glyph glyph-name="wdieresis" unicode="&#x1e85;" horiz-adv-x="1800" 
d="M1147 0l-248 852l-248 -852h-213l-350 1034h164l295 -880l260 880h182l268 -880l291 880h164l-352 -1034h-213zM659 1227q-47 0 -76.5 29t-29.5 75t29.5 75.5t76.5 29.5t77 -29.5t30 -75.5t-30 -75t-77 -29zM1141 1227q-47 0 -77 29t-30 75t30 75.5t77 29.5
q46 0 76 -29.5t30 -75.5t-30 -75t-76 -29z" />
    <glyph glyph-name="Germandbls" unicode="&#x1e9e;" horiz-adv-x="1400" 
d="M344 967v-967h-170v983q0 216 139 356t357 140q199 0 331 -112t132 -280q0 -125 -67 -212.5t-173 -102.5q161 -20 262 -134.5t100 -277.5q0 -179 -123.5 -295t-310.5 -116q-141 0 -293 76l54 137q125 -64 229 -64q122 0 198 77.5t76 199.5q0 147 -92.5 234t-269.5 87h-86
v144h88q103 0 169.5 65.5t66.5 169.5q0 109 -83 180.5t-212 71.5q-144 0 -233 -98.5t-89 -261.5z" />
    <glyph glyph-name="Ygrave" unicode="&#x1ef2;" horiz-adv-x="1325" 
d="M750 537v-537h-172v537l-519 907h189l416 -744l409 744h193zM360 1870h197l211 -225h-188z" />
    <glyph glyph-name="ygrave" unicode="&#x1ef3;" horiz-adv-x="1146" 
d="M123 -426v137q82 -28 137 -28q27 0 51.5 8t43 19t37 33.5t30.5 39.5t28 50t24 52.5t24 59t24 57.5l-465 1032h174l369 -839l322 839h168l-414 -1048q-19 -49 -30.5 -78t-31 -72.5t-33.5 -69.5t-35 -61t-40 -55.5t-44.5 -43.5t-52 -35t-58.5 -20t-68 -8q-79 0 -160 31z
M469 1526l219 -283h-166l-233 283h180z" />
    <glyph glyph-name="endash" unicode="&#x2013;" horiz-adv-x="1366" 
d="M1268 567h-1168v144h1168v-144z" />
    <glyph glyph-name="emdash" unicode="&#x2014;" horiz-adv-x="1693" 
d="M1636 711v-144h-1577v144h1577z" />
    <glyph glyph-name="quoteleft" unicode="&#x2018;" horiz-adv-x="432" 
d="M326 1151q0 -44 -30 -73t-75 -29q-53 0 -85 39.5t-32 103.5q0 95 41.5 183.5t106.5 129.5l76 -55q-46 -31 -75.5 -86t-29.5 -109q46 0 74.5 -28.5t28.5 -75.5z" />
    <glyph glyph-name="quoteright" unicode="&#x2019;" horiz-adv-x="432" 
d="M106 1378q0 44 30.5 73.5t74.5 29.5q54 0 85.5 -39.5t31.5 -104.5q0 -95 -41.5 -183.5t-106.5 -129.5l-76 55q46 31 75.5 85.5t29.5 107.5q-45 0 -74 29.5t-29 76.5z" />
    <glyph glyph-name="quotesinglbase" unicode="&#x201a;" horiz-adv-x="432" 
d="M106 80q0 45 30 73.5t75 28.5q54 0 85.5 -39t31.5 -104q0 -95 -41.5 -182.5t-106.5 -130.5l-76 55q46 33 75.5 86.5t29.5 107.5q-45 0 -74 29t-29 76z" />
    <glyph glyph-name="quotedblleft" unicode="&#x201c;" horiz-adv-x="765" 
d="M330 1151q0 -44 -29.5 -73t-75.5 -29q-52 0 -84 39t-32 104q0 95 41.5 183.5t105.5 129.5l78 -55q-46 -31 -75.5 -86t-29.5 -109q45 0 73 -28.5t28 -75.5zM655 1151q0 -44 -30 -73t-76 -29q-53 0 -85 39.5t-32 103.5q0 96 42 184t108 129l75 -55q-46 -31 -75 -86
t-29 -109q45 0 73.5 -28.5t28.5 -75.5z" />
    <glyph glyph-name="quotedblright" unicode="&#x201d;" horiz-adv-x="759" 
d="M111 1380q0 46 30 75.5t76 29.5q52 0 84.5 -39.5t32.5 -104.5q0 -97 -42 -184.5t-108 -128.5l-75 55q46 31 75 85t29 108q-44 0 -73 29t-29 75zM434 1380q0 46 30.5 75.5t76.5 29.5q52 0 84 -39.5t32 -104.5q0 -97 -41.5 -184.5t-107.5 -128.5l-76 55q46 31 75.5 85
t29.5 108q-45 0 -74 29t-29 75z" />
    <glyph glyph-name="quotedblbase" unicode="&#x201e;" horiz-adv-x="759" 
d="M111 82q0 44 29 73t75 29q53 0 85 -39.5t32 -103.5q0 -95 -41.5 -183.5t-106.5 -129.5l-78 55q46 31 76.5 85.5t30.5 106.5q-46 0 -74 30t-28 77zM434 82q0 44 30 73t75 29q52 0 84 -39t32 -104q0 -95 -41.5 -183.5t-105.5 -129.5l-76 55q46 31 75.5 85t29.5 107
q-46 0 -74.5 30t-28.5 77z" />
    <glyph glyph-name="bullet" unicode="&#x2022;" horiz-adv-x="458" 
d="M229 512q-55 0 -90 34.5t-35 88.5t35 88.5t90 34.5q56 0 91.5 -34.5t35.5 -88.5t-35.5 -88.5t-91.5 -34.5z" />
    <glyph glyph-name="ellipsis" unicode="&#x2026;" horiz-adv-x="1101" 
d="M104 82q0 45 30 74.5t77 29.5q46 0 76 -30t30 -74q0 -47 -30 -77t-76 -30q-47 0 -77 30t-30 77zM444 82q0 45 30 74.5t77 29.5q46 0 76 -30t30 -74q0 -47 -30 -77t-76 -30q-47 0 -77 30t-30 77zM784 82q0 45 30 74.5t77 29.5q46 0 76 -30t30 -74q0 -47 -30 -77t-76 -30
q-47 0 -77 30t-30 77z" />
    <glyph glyph-name="perthousand" unicode="&#x2030;" horiz-adv-x="3035" 
d="M1153 393q0 183 115 297.5t297 114.5q183 0 298 -114.5t115 -297.5q0 -184 -115 -298.5t-298 -114.5t-297.5 114.5t-114.5 298.5zM1819 393q0 112 -70.5 182t-183.5 70t-183.5 -70t-70.5 -182t70.5 -182t183.5 -70t183.5 70t70.5 182zM2103 391q0 184 115.5 299
t298.5 115t298.5 -115t115.5 -299q0 -183 -115.5 -297t-298.5 -114t-298.5 114t-115.5 297zM2769 393q0 111 -70 181.5t-182 70.5q-113 0 -183.5 -70.5t-70.5 -181.5q0 -114 70 -183t184 -69q113 0 182.5 69t69.5 183zM104 1112q0 183 115.5 298.5t298.5 115.5t298.5 -115.5
t115.5 -298.5t-115.5 -297.5t-298.5 -114.5q-184 0 -299 114.5t-115 297.5zM770 1112q0 112 -70 182t-182 70q-114 0 -185 -70t-71 -182t71 -182t185 -70q112 0 182 70t70 182zM1663 1505l-1053 -1505h-190l1053 1505h190z" />
    <glyph glyph-name="guilsinglleft" unicode="&#x2039;" horiz-adv-x="770" 
d="M479 0l-411 516l411 518h189l-418 -518l418 -516h-189z" />
    <glyph glyph-name="guilsinglright" unicode="&#x203a;" horiz-adv-x="770" 
d="M520 516l-416 518h187l414 -518l-412 -516h-189z" />
    <glyph glyph-name="lira" unicode="&#x20a4;" 
d="M330 707h-211l2 110h209v250q0 189 105 307.5t282 118.5q176 0 288 -119t130 -311l-152 -25q-12 143 -80 230.5t-180 87.5q-107 0 -170 -80.5t-61 -208.5v-250h514v-110h-514q-4 -100 -7 -125h521v-111h-537q-22 -151 -75 -231.5t-132 -116.5h868v-123h-1026v174
q37 6 67.5 22t59 48.5t49.5 91t31 139.5h-190l-2 107h207q4 39 4 125z" />
    <glyph glyph-name="Euro" unicode="&#x20ac;" horiz-adv-x="1867" 
d="M1577 481l164 -30q-53 -217 -244.5 -359.5t-435.5 -142.5q-276 0 -474 159.5t-257 421.5h-226v117h209q-2 25 -2 74q0 59 4 88h-211v115h230q61 257 257.5 414t469.5 157q244 0 436.5 -149t245.5 -377l-168 -21q-40 170 -185.5 282.5t-328.5 112.5q-201 0 -348.5 -114
t-202.5 -305h625v-115h-650q-4 -58 -4 -88q0 -24 4 -74h650v-117h-629q55 -195 204 -312.5t351 -117.5q182 0 327.5 108t188.5 273z" />
    <glyph glyph-name="trademark" unicode="&#x2122;" horiz-adv-x="2256" 
d="M795 1321h-312v-1014h-137v1014h-307v123h756v-123zM2083 1444v-1137h-131v940l-379 -940h-109l-379 940v-940h-131v1137h197l367 -940l364 940h201z" />
    <glyph glyph-name="minus" unicode="&#x2212;" horiz-adv-x="1048" 
d="M944 711v-144h-840v144h840z" />
    <glyph glyph-name="notequal" unicode="&#x2260;" horiz-adv-x="1171" 
d="M915 1303l-127 -336h279v-144h-332l-137 -366h469v-144h-522l-148 -395h-145l149 395h-297v144h351l137 366h-488v144h541l127 336h143z" />
    <glyph glyph-name="lessequal" unicode="&#x2264;" horiz-adv-x="919" 
d="M811 0h-721l2 141h719v-141zM811 387v-143l-721 331v158l721 332v-147l-580 -265z" />
    <glyph glyph-name="greaterequal" unicode="&#x2265;" horiz-adv-x="919" 
d="M829 141v-141h-720v141h720zM829 733v-158l-720 -331v143l579 266l-579 265v147z" />
    <glyph glyph-name="commaaccent" unicode="&#xf6c3;" horiz-adv-x="403" 
d="M193 -68q-39 0 -64 26.5t-25 66.5q0 41 25 66.5t66 25.5q46 0 75 -34t29 -89q0 -75 -36 -148t-93 -116l-55 43q34 33 56 76.5t22 82.5z" />
    <glyph glyph-name="IJacute" horiz-adv-x="1431" 
d="M365 0h-170v1444h170v-1444zM1069 432v1012h172v-1010q0 -213 -121.5 -344t-312.5 -131q-129 0 -260 41v147q122 -36 227 -36q131 0 213 86.5t82 234.5zM383 1645h-186l211 225h194zM1239 1645h-188l211 225h196z" />
    <glyph glyph-name="acute.case" horiz-adv-x="614" 
d="M104 1266l211 225h195l-217 -225h-189z" />
    <glyph glyph-name="breve.case" horiz-adv-x="770" 
d="M545 1505h121q0 -108 -79 -178t-202 -70q-122 0 -201.5 70.5t-79.5 177.5h123q0 -58 44.5 -95.5t113.5 -37.5q70 0 115 37t45 96z" />
    <glyph glyph-name="caron.case" horiz-adv-x="858" 
d="M104 1487h158l166 -154l168 154h158l-240 -242h-170z" />
    <glyph glyph-name="circumflex.case" horiz-adv-x="858" 
d="M596 1227l-168 153l-166 -153h-158l240 241h170l240 -241h-158z" />
    <glyph glyph-name="dieresis.case" horiz-adv-x="868" 
d="M211 1192q-47 0 -77 29t-30 75t30 74.5t77 28.5q46 0 76 -29t30 -74q0 -46 -30 -75t-76 -29zM659 1192q-47 0 -76.5 29t-29.5 75t29.5 74.5t76.5 28.5q46 0 76.5 -29t30.5 -74t-30.5 -74.5t-76.5 -29.5z" />
    <glyph glyph-name="dotaccent.case" horiz-adv-x="421" 
d="M211 1176q-48 0 -77.5 27.5t-29.5 72.5q2 43 31 70.5t76 27.5t76.5 -27.5t29.5 -70.5q0 -45 -29 -72.5t-77 -27.5z" />
    <glyph glyph-name="grave.case" horiz-adv-x="614" 
d="M104 1495h195l211 -225h-186z" />
    <glyph glyph-name="hungarumlaut.case" horiz-adv-x="901" 
d="M459 1505l-213 -243h-142l189 243h166zM797 1505l-224 -243h-139l199 243h164z" />
    <glyph glyph-name="ijacute" horiz-adv-x="968" 
d="M332 1034v-1034h-158v1034h158zM668 -158v1192h157v-1196q0 -129 -75.5 -209t-196.5 -80q-95 0 -174 27v121q68 -19 133 -19q70 0 113 45t43 119zM551 1505l-227 -256h-166l215 256h178zM1036 1505l-229 -256h-164l215 256h178z" />
    <glyph glyph-name="ring.case" horiz-adv-x="589" 
d="M297 1106q-84 0 -138.5 52t-54.5 130q0 79 54 130.5t137 51.5t136.5 -51t53.5 -131q0 -79 -53 -130.5t-135 -51.5zM297 1374q-38 0 -63 -23.5t-25 -60.5q0 -38 25 -63t63 -25q37 0 61.5 25t24.5 63q0 37 -24 60.5t-62 23.5z" />
    <glyph glyph-name="tilde.case" horiz-adv-x="923" 
d="M188 1272l-84 61q27 61 86.5 99t133.5 38q47 0 88.5 -18t66 -40t57.5 -40t66 -18q41 0 75.5 25t55.5 67l86 -60q-27 -62 -87.5 -100.5t-137.5 -38.5q-51 0 -93.5 18t-66 39.5t-54 39.5t-61.5 18q-75 0 -131 -90z" />
    </font>
</defs>
</svg>
